<?xml version="1.0" encoding="utf-8"?>
<!-- Generator: Adobe Illustrator 21.0.2, SVG Export Plug-In . SVG Version: 6.00 Build 0)  -->
<svg version="1.1" id="Layer_1" xmlns="http://www.w3.org/2000/svg" xmlns:xlink="http://www.w3.org/1999/xlink" x="0px" y="0px"
	 viewBox="0 0 100 71.9" style="enable-background:new 0 0 100 71.9;" xml:space="preserve">
<g id="Home">
	<g id="Group-7" transform="translate(-1088.000000, -1480.000000)">
		<g transform="translate(1088.000000, 1480.000000)">
			<path id="Shape" d="M82.8,67.2c-0.2,0-0.3,0-0.5-0.1l-75-25c-0.8-0.3-1.3-1.2-1-2s1.2-1.3,2-1l75,25c0.8,0.3,1.3,1.2,1,2
				C84.1,66.8,83.5,67.2,82.8,67.2z"/>
			<path id="Shape_1_" d="M7.8,32.8c-0.7,0-1.3-0.4-1.5-1.1c-0.3-0.8,0.2-1.7,1-2l75-25c0.8-0.3,1.7,0.2,2,1s-0.2,1.7-1,2l-75,25
				C8.1,32.8,8,32.8,7.8,32.8z"/>
			<path id="Shape_2_" d="M4.7,45.3c-2.6,0-4.7-2.1-4.7-4.7v-9.4c0-2.6,2.1-4.7,4.7-4.7s4.7,2.1,4.7,4.7v9.4
				C9.4,43.2,7.3,45.3,4.7,45.3z M4.7,29.7c-0.9,0-1.6,0.7-1.6,1.6v9.4c0,0.9,0.7,1.6,1.6,1.6s1.6-0.7,1.6-1.6v-9.4
				C6.3,30.4,5.5,29.7,4.7,29.7z"/>
			<path id="Shape_3_" d="M87.5,71.9c-3.4,0-6.3-2.8-6.3-6.3V46.9h3.1v18.8c0,1.7,1.4,3.1,3.1,3.1s3.1-1.4,3.1-3.1V46.9h3.1v18.8
				C93.8,69.1,90.9,71.9,87.5,71.9z"/>
			<path id="Shape_4_" d="M93.8,25h-3.1V6.3c0-1.7-1.4-3.1-3.1-3.1s-3.1,1.4-3.1,3.1V25h-3.1V6.3c0-3.4,2.8-6.3,6.3-6.3
				S94,2.8,94,6.3V25H93.8z"/>
			<path id="Shape_5_" d="M40.6,60.9c-0.2,0-0.4,0-0.5-0.1L18.2,53c-0.6-0.2-1-0.8-1-1.5v-7.8h3.1v6.7l18.8,6.7v-5.6h3.1v7.8
				c0,0.5-0.2,1-0.7,1.3C41.3,60.8,40.9,60.9,40.6,60.9z"/>
			<rect id="Rectangle-path" x="53.1" y="15.6" width="3.1" height="40.6"/>
			<path id="Shape_6_" d="M93.8,34.4c-2.6,0-3.7-1.3-4.3-2.1c-0.6-0.7-0.8-1-1.9-1s-1.4,0.3-1.9,1c-0.7,0.9-1.7,2.1-4.3,2.1
				c-2.6,0-3.7-1.3-4.3-2.1c-0.6-0.7-0.8-1-1.9-1s-1.4,0.3-1.9,1c-0.7,0.9-1.7,2.1-4.3,2.1v-3.1c1.1,0,1.4-0.3,1.9-1
				c0.7-0.9,1.7-2.1,4.3-2.1s3.7,1.3,4.3,2.1c0.6,0.7,0.8,1,1.9,1s1.4-0.3,1.9-1c0.7-0.9,1.7-2.1,4.3-2.1c2.6,0,3.7,1.3,4.3,2.1
				c0.6,0.7,0.8,1,1.9,1s1.4-0.3,1.9-1c0.7-0.9,1.7-2.1,4.3-2.1v3.1c-1.1,0-1.4,0.3-1.9,1C97.4,33.1,96.4,34.4,93.8,34.4z"/>
			<path id="Shape_7_" d="M93.8,43.8c-2.6,0-3.7-1.3-4.3-2.1c-0.6-0.7-0.8-1-1.9-1s-1.4,0.3-1.9,1c-0.7,0.9-1.7,2.1-4.3,2.1
				c-2.6,0-3.7-1.3-4.3-2.1c-0.6-0.7-0.8-1-1.9-1s-1.4,0.3-1.9,1c-0.7,0.9-1.7,2.1-4.3,2.1s-3.7-1.3-4.3-2.1c-0.6-0.7-0.8-1-1.9-1
				v-3.1c2.6,0,3.7,1.3,4.3,2.1c0.6,0.7,0.8,1,1.9,1s1.4-0.3,1.9-1c0.7-0.9,1.7-2.1,4.3-2.1c2.6,0,3.7,1.3,4.3,2.1
				c0.6,0.7,0.8,1,1.9,1s1.4-0.3,1.9-1c0.7-0.9,1.7-2.1,4.3-2.1s3.7,1.3,4.3,2.1c0.6,0.7,0.8,1,1.9,1V43.8z"/>
		</g>
	</g>
</g>
</svg>
