<?xml version="1.0" encoding="utf-8"?>
<!-- Generator: Adobe Illustrator 21.1.0, SVG Export Plug-In . SVG Version: 6.00 Build 0)  -->
<svg version="1.1" id="Layer_1" xmlns="http://www.w3.org/2000/svg" xmlns:xlink="http://www.w3.org/1999/xlink" x="0px" y="0px"
	 viewBox="0 0 100 100" style="enable-background:new 0 0 100 100;" xml:space="preserve">
<g id="Stories">
	<g id="Group-2" transform="translate(-889.000000, -123.000000)">
		<g transform="translate(829.333333, 123.000000)">
			<g id="_x30_9-teamwork-collaboration" transform="translate(60.000000, 0.000000)">
				<rect id="Rectangle-path" x="15.3" y="48.4" width="3.1" height="3.1"/>
				<rect id="Rectangle-path_1_" x="9" width="3.1" height="7.8"/>
				<path id="Shape" d="M30.9,57.8H12.2c-1.7,0-3.1-1.4-3.1-3.1V32.8h3.1v21.9h18.8V34.4H34v20.3C34,56.4,32.6,57.8,30.9,57.8z"/>
				<rect id="Rectangle-path_2_" x="30.9" width="3.1" height="9.4"/>
				<path id="Shape_1_" d="M21.5,34.4H7.5c-2.6,0-4.7-2.1-4.7-4.7c0-0.6,0.1-1.2,0.3-1.7c-2-0.5-3.5-2.4-3.5-4.5s1.5-4,3.5-4.5
					c-0.2-0.5-0.3-1.1-0.3-1.7c0-2.2,1.5-4,3.5-4.5c-0.2-0.5-0.3-1.1-0.3-1.7c0-2.6,2.1-4.7,4.7-4.7l14.5,0.1l15.4,4.6h2.9v3.1
					L39.8,14L24.4,9.4H10.6C9.7,9.4,9,10.1,9,10.9s0.7,1.6,1.6,1.6v3.1H7.5c-0.9,0-1.6,0.7-1.6,1.6s0.7,1.6,1.6,1.6v3.1H4.4
					c-0.9,0-1.6,0.7-1.6,1.6S3.5,25,4.4,25h3.1v3.1c-0.9,0-1.6,0.7-1.6,1.6s0.7,1.6,1.6,1.6h14.1V34.4z"/>
				<rect id="Rectangle-path_3_" x="7.5" y="25" width="9.4" height="3.1"/>
				<rect id="Rectangle-path_4_" x="7.5" y="18.8" width="9.4" height="3.1"/>
				<rect id="Rectangle-path_5_" x="10.6" y="12.5" width="6.2" height="3.1"/>
				<path id="Shape_2_" d="M25,40.6h-6.6c-2.6,0-4.7-2.1-4.7-4.7h3.1c0,0.9,0.7,1.6,1.6,1.6h5.9l5.8-2.9l6.6-4.9h6.8v3.1h-5.7
					l-6.1,4.5L25,40.6z"/>
				<rect id="Rectangle-path_6_" x="48.1" y="15.6" width="3.1" height="3.1"/>
				<rect id="Rectangle-path_7_" x="91.9" y="9.4" width="7.8" height="3.1"/>
				<path id="Shape_3_" d="M65.3,34.4H45c-1.7,0-3.1-1.4-3.1-3.1V12.5c0-1.7,1.4-3.1,3.1-3.1h21.9v3.1H45v18.8h20.3V34.4z"/>
				<rect id="Rectangle-path_8_" x="90.3" y="31.2" width="9.4" height="3.1"/>
				<path id="Shape_4_" d="M88.7,43.8h-3.1l0.1-3.6l4.6-15.4V10.9c0-0.9-0.7-1.6-1.6-1.6s-1.6,0.7-1.6,1.6H84V7.8
					c0-0.9-0.7-1.6-1.6-1.6S80.9,7,80.9,7.8h-3.1V4.7c0-0.9-0.7-1.6-1.6-1.6s-1.6,0.7-1.6,1.6v3.1h-3.1c0-0.9-0.7-1.6-1.6-1.6
					S68.4,7,68.4,7.8v14.1h-3.1V7.8c0-2.6,2.1-4.7,4.7-4.7c0.6,0,1.2,0.1,1.7,0.3c0.5-2,2.4-3.5,4.5-3.5s4,1.5,4.5,3.5
					c0.5-0.2,1.1-0.3,1.7-0.3c2.2,0,4,1.5,4.5,3.5c0.5-0.2,1.1-0.3,1.7-0.3c2.6,0,4.7,2.1,4.7,4.7l-0.1,14.5l-4.6,15.4V43.8z"/>
				<rect id="Rectangle-path_9_" x="71.5" y="7.8" width="3.1" height="9.4"/>
				<rect id="Rectangle-path_10_" x="77.8" y="7.8" width="3.1" height="9.4"/>
				<rect id="Rectangle-path_11_" x="84" y="10.9" width="3.1" height="6.2"/>
				<path id="Shape_5_" d="M70,43.8h-3.1V38l-4.5-6.1L59,25.4v-6.6c0-2.6,2.1-4.7,4.7-4.7v3.1c-0.9,0-1.6,0.7-1.6,1.6v5.9l2.9,5.8
					L70,37V43.8z"/>
				<rect id="Rectangle-path_12_" x="80.9" y="48.4" width="3.1" height="3.1"/>
				<rect id="Rectangle-path_13_" x="65.3" y="90.6" width="3.1" height="9.4"/>
				<path id="Shape_6_" d="M68.4,65.6h-3.1V45.3c0-1.7,1.4-3.1,3.1-3.1h18.8c1.7,0,3.1,1.4,3.1,3.1v18.8h-3.1V45.3H68.4V65.6z"/>
				<rect id="Rectangle-path_14_" x="87.2" y="89.1" width="3.1" height="10.9"/>
				<path id="Shape_7_" d="M91.9,90.6H77.8v-3.1h14.1c0.9,0,1.6-0.7,1.6-1.6s-0.7-1.6-1.6-1.6v-3.1H95c0.9,0,1.6-0.7,1.6-1.6
					s-0.7-1.6-1.6-1.6h-3.1V75c0.9,0,1.6-0.7,1.6-1.6s-0.7-1.6-1.6-1.6h-3.1v-3.1c0.9,0,1.6-0.7,1.6-1.6s-0.7-1.6-1.6-1.6H74.9
					L59,70.3h-3.1v-3.1h2.9l15.9-4.7h14.1c2.6,0,4.7,2.1,4.7,4.7c0,0.6-0.1,1.2-0.3,1.7c2,0.5,3.5,2.4,3.5,4.5
					c0,0.6-0.1,1.2-0.3,1.7c2,0.5,3.5,2.4,3.5,4.5s-1.5,4-3.5,4.5c0.2,0.5,0.3,1.1,0.3,1.7C96.5,88.5,94.4,90.6,91.9,90.6z"/>
				<rect id="Rectangle-path_15_" x="82.5" y="81.2" width="9.4" height="3.1"/>
				<rect id="Rectangle-path_16_" x="82.5" y="75" width="9.4" height="3.1"/>
				<rect id="Rectangle-path_17_" x="82.5" y="68.8" width="6.2" height="3.1"/>
				<path id="Shape_8_" d="M80.9,96.9h-6.6l-6.8-3.4l-5.8-4.4h-5.7v-3.1h6.8l6.6,4.9l5.8,2.9h5.9c0.9,0,1.6-0.7,1.6-1.6h3.1
					C85.6,94.8,83.5,96.9,80.9,96.9z"/>
				<rect id="Rectangle-path_18_" x="48.1" y="71.9" width="3.1" height="3.1"/>
				<rect id="Rectangle-path_19_" x="-0.3" y="65.6" width="10.9" height="3.1"/>
				<path id="Shape_9_" d="M54.4,90.6H32.5v-3.1h21.9V68.8H34v-3.1h20.3c1.7,0,3.1,1.4,3.1,3.1v18.8C57.5,89.2,56.1,90.6,54.4,90.6z
					"/>
				<rect id="Rectangle-path_20_" x="-0.3" y="87.5" width="7.8" height="3.1"/>
				<path id="Shape_10_" d="M23.1,100c-2.2,0-4-1.5-4.5-3.5c-0.5,0.2-1.1,0.3-1.7,0.3c-2.2,0-4-1.5-4.5-3.5
					c-0.5,0.2-1.1,0.3-1.7,0.3c-2.6,0-4.7-2.1-4.7-4.7L6,74.6l4.6-15.4v-2.9h3.1l-0.1,3.6L9,75.2v13.8c0,0.9,0.7,1.6,1.6,1.6
					s1.6-0.7,1.6-1.6h3.1v3.1c0,0.9,0.7,1.6,1.6,1.6s1.6-0.7,1.6-1.6h3.1v3.1c0,0.9,0.7,1.6,1.6,1.6s1.6-0.7,1.6-1.6v-3.1h3.1
					c0,0.9,0.7,1.6,1.6,1.6s1.6-0.7,1.6-1.6V78.1H34v14.1c0,2.6-2.1,4.7-4.7,4.7c-0.6,0-1.2-0.1-1.7-0.3
					C27.1,98.5,25.3,100,23.1,100z"/>
				<rect id="Rectangle-path_21_" x="24.7" y="82.8" width="3.1" height="9.4"/>
				<rect id="Rectangle-path_22_" x="18.4" y="82.8" width="3.1" height="9.4"/>
				<rect id="Rectangle-path_23_" x="12.2" y="82.8" width="3.1" height="6.2"/>
				<path id="Shape_11_" d="M35.6,85.9v-3.1c0.9,0,1.6-0.7,1.6-1.6v-5.9l-2.9-5.8L29.4,63v-6.8h3.1V62l4.5,6.1l3.3,6.6v6.6
					C40.3,83.8,38.2,85.9,35.6,85.9z"/>
				<rect id="Rectangle-path_24_" x="10.6" y="54.7" width="21.9" height="3.1"/>
			</g>
		</g>
	</g>
</g>
</svg>
