<?xml version="1.0" encoding="utf-8"?>
<!-- Generator: Adobe Illustrator 21.1.0, SVG Export Plug-In . SVG Version: 6.00 Build 0)  -->
<svg version="1.1" id="Layer_1" xmlns="http://www.w3.org/2000/svg" xmlns:xlink="http://www.w3.org/1999/xlink" x="0px" y="0px"
	 viewBox="0 0 100 100" style="enable-background:new 0 0 100 100;" xml:space="preserve">
<g id="Watch">
	<g id="_x32_7-university-forum" transform="translate(-1084.000000, -128.000000)">
		<g transform="translate(1084.000000, 128.000000)">
			<path id="Shape" d="M41.1,77.7l-5.1-5.1l-5.1,5.1l-2.2-2.2l6.2-6.2c0.6-0.6,1.6-0.6,2.2,0l6.2,6.2L41.1,77.7z"/>
			<path id="Shape_1_" d="M69.2,77.7l-5.1-5.1l-5.1,5.1l-2.2-2.2l6.2-6.2c0.6-0.6,1.6-0.6,2.2,0l6.2,6.2L69.2,77.7z"/>
			<path id="Shape_2_" d="M50,100c-0.4,0-0.8-0.2-1.1-0.5l-6.2-6.2l2.2-2.2l5.1,5.1l5.1-5.1l2.2,2.2l-6.2,6.2
				C50.8,99.8,50.4,100,50,100z"/>
			<path id="Shape_3_" d="M35.9,89.1H0v-3.1h34.4V70.3h3.1v17.2C37.5,88.4,36.8,89.1,35.9,89.1z"/>
			<path id="Shape_4_" d="M100,89.1H64.1c-0.9,0-1.6-0.7-1.6-1.6V70.3h3.1v15.6H100V89.1z"/>
			<rect id="Rectangle-path" x="48.4" y="68.8" width="3.1" height="29.7"/>
			<path id="Shape_5_" d="M92.8,65.6H7.2L0,58.5v-5.3h39.7l3.1,3.1h14.3l3.1-3.1H100v5.3L92.8,65.6z M8.5,62.5h83.1l5.3-5.3v-0.9
				H61.6l-3.1,3.1H41.5l-3.1-3.1H3.1v0.9L8.5,62.5z"/>
			<path id="Shape_6_" d="M90.6,50h-3.1V6.2c0-1.7-1.4-3.1-3.1-3.1H15.6c-1.7,0-3.1,1.4-3.1,3.1V50H9.4V6.2c0-3.4,2.8-6.2,6.2-6.2
				h68.8c3.4,0,6.2,2.8,6.2,6.2V50z"/>
			<path id="Shape_7_" d="M67.2,35.9h-1.6c-3.4,0-6.2-2.8-6.2-6.2V10.9h3.1v18.8c0,1.7,1.4,3.1,3.1,3.1h1.6c1.7,0,3.1-1.4,3.1-3.1
				V10.9h3.1v18.8C73.4,33.1,70.6,35.9,67.2,35.9z"/>
			<rect id="Rectangle-path_1_" x="28.1" y="21.9" width="7.8" height="3.1"/>
			<path id="Shape_8_" d="M50,35.9h-7.8v-25H50c3.4,0,6.2,2.8,6.2,6.2v12.5C56.2,33.1,53.4,35.9,50,35.9z M45.3,32.8H50
				c1.7,0,3.1-1.4,3.1-3.1V17.2c0-1.7-1.4-3.1-3.1-3.1h-4.7V32.8z"/>
			<path id="Shape_9_" d="M39.1,35.9h-7.8c-2.6,0-4.7-2.1-4.7-4.7V15.6c0-2.6,2.1-4.7,4.7-4.7h7.8v3.1h-7.8c-0.9,0-1.6,0.7-1.6,1.6
				v15.6c0,0.9,0.7,1.6,1.6,1.6h7.8V35.9z"/>
			<rect id="Rectangle-path_2_" x="10.9" y="43.8" width="78.1" height="3.1"/>
		</g>
	</g>
</g>
</svg>
