<?xml version="1.0" encoding="utf-8"?>
<!-- Generator: Adobe Illustrator 21.1.0, SVG Export Plug-In . SVG Version: 6.00 Build 0)  -->
<svg version="1.1" id="Layer_1" xmlns="http://www.w3.org/2000/svg" xmlns:xlink="http://www.w3.org/1999/xlink" x="0px" y="0px"
	 viewBox="0 0 100 100" style="enable-background:new 0 0 100 100;" xml:space="preserve">
<g id="Watch">
	<g id="_x32_7-classroom-teacher" transform="translate(-816.000000, -128.000000)">
		<g transform="translate(816.000000, 128.000000)">
			<rect id="Rectangle-path" x="17.2" y="64.1" width="3.1" height="35.9"/>
			<path id="Shape" d="M18.8,18.8c-5.2,0-9.4-4.2-9.4-9.4S13.6,0,18.8,0s9.4,4.2,9.4,9.4S23.9,18.8,18.8,18.8z M18.8,3.1
				c-3.4,0-6.2,2.8-6.2,6.2s2.8,6.2,6.2,6.2S25,12.8,25,9.4S22.2,3.1,18.8,3.1z"/>
			<path id="Shape_1_" d="M31.2,100h-3.1V59.4c0-0.9,0.7-1.6,1.6-1.6h4.7V34.4c0-5.2-4.2-9.4-9.4-9.4H12.5c-5.2,0-9.4,4.2-9.4,9.4
				v23.4h4.7c0.9,0,1.6,0.7,1.6,1.6V100H6.2V60.9H1.6c-0.9,0-1.6-0.7-1.6-1.6v-25c0-6.9,5.6-12.5,12.5-12.5H25
				c6.9,0,12.5,5.6,12.5,12.5v25c0,0.9-0.7,1.6-1.6,1.6h-4.7V100z"/>
			<rect id="Rectangle-path_1_" x="17.2" y="28.1" width="3.1" height="3.1"/>
			<rect id="Rectangle-path_2_" x="17.2" y="34.4" width="3.1" height="3.1"/>
			<path id="Shape_2_" d="M100,65.6h-3.1V10.9H31.2V7.8h67.2c0.9,0,1.6,0.7,1.6,1.6V65.6z"/>
			<path id="Shape_3_" d="M98.4,73.4H34.4v-3.1h62.5v-3.1H34.4v-3.1h64.1c0.9,0,1.6,0.7,1.6,1.6v6.2C100,72.7,99.3,73.4,98.4,73.4z"
				/>
		</g>
	</g>
</g>
<g id="Watch_1_">
	<g id="Shape_4_" transform="translate(-843.000000, -140.000000)">
		<path d="M900.3,190h-3.5v-25h3.5l23.2,12.5L900.3,190z M899.9,168.3v18.3l17-9.2L899.9,168.3z"/>
	</g>
</g>
</svg>
