<?xml version="1.0" encoding="utf-8"?>
<!-- Generator: Adobe Illustrator 21.0.2, SVG Export Plug-In . SVG Version: 6.00 Build 0)  -->
<svg version="1.1" id="Layer_1" xmlns="http://www.w3.org/2000/svg" xmlns:xlink="http://www.w3.org/1999/xlink" x="0px" y="0px"
	 viewBox="0 0 100 93.8" style="enable-background:new 0 0 100 93.8;" xml:space="preserve">
<g id="Home">
	<g id="Group" transform="translate(-1085.000000, -1234.000000)">
		<g transform="translate(1085.000000, 1234.000000)">
			<polygon id="Shape" points="100,70.3 34.4,70.3 34.4,67.2 96.9,67.2 96.9,10.9 31.3,10.9 31.3,7.8 100,7.8 			"/>
			<rect id="Rectangle-path" x="34.4" y="60.9" width="59.4" height="3.1"/>
			<polygon id="Shape_1_" points="43.8,57.8 40.6,57.8 40.6,51.6 37.5,51.6 37.5,57.8 34.4,57.8 34.4,48.4 43.8,48.4 			"/>
			<polygon id="Shape_2_" points="68.8,57.8 65.6,57.8 65.6,40.6 62.5,40.6 62.5,57.8 59.4,57.8 59.4,37.5 68.8,37.5 			"/>
			<polygon id="Shape_3_" points="81.2,57.8 78.1,57.8 78.1,31.3 75,31.3 75,57.8 71.9,57.8 71.9,28.1 81.2,28.1 			"/>
			<polygon id="Shape_4_" points="93.8,57.8 90.6,57.8 90.6,23.4 87.5,23.4 87.5,57.8 84.4,57.8 84.4,20.3 93.8,20.3 			"/>
			<polygon id="Shape_5_" points="56.2,57.8 53.1,57.8 53.1,46.9 50,46.9 50,57.8 46.9,57.8 46.9,43.8 56.2,43.8 			"/>
			<rect id="Rectangle-path_1_" x="17.2" y="60.9" width="3.1" height="32.8"/>
			<path id="Shape_6_" d="M18.8,18.8c-5.2,0-9.4-4.2-9.4-9.4S13.6,0,18.8,0s9.4,4.2,9.4,9.4S23.9,18.8,18.8,18.8z M18.8,3.1
				c-3.4,0-6.3,2.8-6.3,6.3s2.8,6.3,6.3,6.3S25,12.8,25,9.4S22.2,3.1,18.8,3.1z"/>
			<path id="Shape_7_" d="M31.3,93.8h-3.1V31.3h25V25H12.5c-5.2,0-9.4,4.2-9.4,9.4v20.3h6.3v39.1H6.3v-36H0V34.4
				c0-6.9,5.6-12.5,12.5-12.5h43.7v12.5h-25L31.3,93.8L31.3,93.8z"/>
			<rect id="Rectangle-path_2_" x="17.2" y="28.1" width="3.1" height="3.1"/>
			<rect id="Rectangle-path_3_" x="17.2" y="34.4" width="3.1" height="3.1"/>
		</g>
	</g>
</g>
</svg>
