<?xml version="1.0" encoding="utf-8"?>
<!-- Generator: Adobe Illustrator 21.1.0, SVG Export Plug-In . SVG Version: 6.00 Build 0)  -->
<svg version="1.1" id="Layer_1" xmlns="http://www.w3.org/2000/svg" xmlns:xlink="http://www.w3.org/1999/xlink" x="0px" y="0px"
	 viewBox="0 0 100 100" style="enable-background:new 0 0 100 100;" xml:space="preserve">
<g id="Stories">
	<g id="Group" transform="translate(-1182.000000, -123.000000)">
		<g transform="translate(1101.000000, 123.000000)">
			<g id="_x31_0-gold-cup-winner" transform="translate(81.000000, 0.000000)">
				<path id="Shape" d="M54.7,67.2h-3.1V51.6c0-0.7,0.4-1.3,1.1-1.5c8.3-2.8,17.7-17.4,17.7-32.9c0-3.6-1-11-1.4-14.1H31.1
					c-0.4,3-1.4,10.5-1.4,14.1c0,15.5,9.3,30.1,17.7,32.9c0.6,0.2,1.1,0.8,1.1,1.5v15.6h-3.1V52.6c-10.1-4.2-18.8-20.4-18.8-35.5
					c0-4.7,1.5-15.4,1.6-15.8C28.3,0.6,28.9,0,29.7,0h40.6c0.8,0,1.4,0.6,1.5,1.3c0.1,0.5,1.6,11.1,1.6,15.8
					c0,15.1-8.6,31.2-18.8,35.5V67.2z"/>
				<path id="Shape_1_" d="M67.2,75H32.8c-0.6,0-1.2-0.4-1.4-1c-0.2-0.6-0.1-1.3,0.3-1.7l6.2-6.2c0.3-0.3,0.7-0.5,1.1-0.5h21.9
					c0.4,0,0.8,0.2,1.1,0.5l6.2,6.2c0.4,0.4,0.6,1.1,0.3,1.7C68.4,74.6,67.8,75,67.2,75z M36.6,71.9h26.8l-3.1-3.1H39.7L36.6,71.9z"
					/>
				<path id="Shape_2_" d="M70.3,93.8H29.7c-0.9,0-1.6-0.7-1.6-1.6V73.4c0-0.9,0.7-1.6,1.6-1.6h40.6c0.9,0,1.6,0.7,1.6,1.6v18.8
					C71.9,93.1,71.2,93.8,70.3,93.8z M31.2,90.6h37.5V75H31.2V90.6z"/>
				<path id="Shape_3_" d="M76.6,100H23.4c-0.9,0-1.6-0.7-1.6-1.6v-6.2c0-0.9,0.7-1.6,1.6-1.6h53.1c0.9,0,1.6,0.7,1.6,1.6v6.2
					C78.1,99.3,77.4,100,76.6,100z M25,96.9h50v-3.1H25V96.9z"/>
				<path id="Shape_4_" d="M35.1,43.5C34.3,43,14.1,30.3,14.1,7.8c0-0.9,0.7-1.6,1.6-1.6h7.8v3.1h-6.2c0.9,19.8,19.3,31.4,19.5,31.5
					L35.1,43.5z"/>
				<path id="Shape_5_" d="M64.9,43.5l-1.6-2.7c0.2-0.1,18.6-11.7,19.5-31.5h-6.2V6.2h7.8c0.9,0,1.6,0.7,1.6,1.6
					C85.9,30.3,65.7,43,64.9,43.5z"/>
				<rect id="Rectangle-path" x="48.4" y="81.2" width="3.1" height="3.1"/>
				<rect id="Rectangle-path_1_" x="42.2" y="81.2" width="3.1" height="3.1"/>
				<rect id="Rectangle-path_2_" x="54.7" y="81.2" width="3.1" height="3.1"/>
				<path id="Shape_6_" d="M57.8,35.9c-0.3,0-0.7-0.1-1-0.3L50,30.1l-6.8,5.5c-0.5,0.4-1.3,0.5-1.9,0.1c-0.6-0.4-0.8-1.1-0.6-1.8
					l2.8-8.3l-7-5.6c-0.5-0.4-0.7-1.1-0.5-1.7c0.2-0.6,0.8-1,1.5-1h8.2l2.8-8.3c0.2-0.6,0.8-1.1,1.5-1.1s1.3,0.4,1.5,1.1l2.8,8.3
					h8.2c0.7,0,1.3,0.4,1.5,1c0.2,0.6,0,1.3-0.5,1.7l-7,5.6l2.8,8.3c0.2,0.7,0,1.4-0.6,1.8C58.4,35.8,58.1,35.9,57.8,35.9z M50,26.6
					c0.3,0,0.7,0.1,1,0.3l3.7,2.9l-1.5-4.4c-0.2-0.6,0-1.3,0.5-1.7l4.3-3.5h-4.9c-0.7,0-1.3-0.4-1.5-1.1L50,14.3l-1.6,4.9
					c-0.2,0.6-0.8,1.1-1.5,1.1H42l4.3,3.5c0.5,0.4,0.7,1.1,0.5,1.7l-1.5,4.4l3.7-2.9C49.3,26.7,49.7,26.6,50,26.6z"/>
				<rect id="Rectangle-path_3_" y="96.9" width="100" height="3.1"/>
			</g>
		</g>
	</g>
</g>
</svg>
