<?xml version="1.0" encoding="utf-8"?>
<!-- Generator: Adobe Illustrator 21.1.0, SVG Export Plug-In . SVG Version: 6.00 Build 0)  -->
<svg version="1.1" id="Layer_1" xmlns="http://www.w3.org/2000/svg" xmlns:xlink="http://www.w3.org/1999/xlink" x="0px" y="0px"
	 viewBox="0 0 100 100" style="enable-background:new 0 0 100 100;" xml:space="preserve">
<g id="Symbols">
	<g id="Button-_x2F_-Facebook" transform="translate(-16.000000, -16.000000)">
		<path id="Shape" d="M106,16H26c-5.5,0-10,4.5-10,10v80c0,5.5,4.5,10,10,10h80c5.5,0,10-4.5,10-10V26C116,20.5,111.5,16,106,16z
			 M101,26v15H91c-3,0-5,2-5,5v10h15v15H86v35H71V71H61V56h10V43.5C71,34,79,26,88.5,26H101z"/>
	</g>
</g>
</svg>
