<?xml version="1.0" encoding="utf-8"?>
<!-- Generator: Adobe Illustrator 21.1.0, SVG Export Plug-In . SVG Version: 6.00 Build 0)  -->
<svg version="1.1" id="Layer_1" xmlns="http://www.w3.org/2000/svg" xmlns:xlink="http://www.w3.org/1999/xlink" x="0px" y="0px"
	 viewBox="0 0 100 100" style="enable-background:new 0 0 100 100;" xml:space="preserve">
<g id="Symbols">
	<g id="Button-_x2F_-Linkedin" transform="translate(-16.000000, -16.000000)">
		<path id="Shape" d="M106,16H26c-5.5,0-10,4.5-10,10v80c0,5.5,4.5,10,10,10h80c5.5,0,10-4.5,10-10V26C116,20.5,111.5,16,106,16z
			 M46,101H31V56h15V101z M38.5,47.5c-5,0-9-4-9-9c0-5,4-9,9-9c5,0,9,4,9,9C47.5,43.5,43.5,47.5,38.5,47.5z M101,101H86V74.5
			c0-4-3.5-7.5-7.5-7.5S71,70.5,71,74.5V101H56V56h15v6c2.5-4,8-7,12.5-7C93,55,101,63,101,72.5V101z"/>
	</g>
</g>
</svg>
