<?xml version="1.0" encoding="utf-8"?>
<!-- Generator: Adobe Illustrator 21.0.2, SVG Export Plug-In . SVG Version: 6.00 Build 0)  -->
<svg version="1.1" id="Layer_1" xmlns="http://www.w3.org/2000/svg" xmlns:xlink="http://www.w3.org/1999/xlink" x="0px" y="0px"
	 viewBox="0 0 99.2 100" style="enable-background:new 0 0 99.2 100;" xml:space="preserve">
<g id="Symbols">
	<g id="Footer-_x2F_-Default" transform="translate(-369.000000, -289.000000)">
		<g id="Logo-_x2F_-Dark" transform="translate(369.000000, 289.000000)">
			<g id="Logo" transform="translate(56.000000, 15.000000)">
			</g>
			<g id="Page-1">
				<path id="Fill-7" d="M23.8,9.8c-0.2,0-0.5,0-0.7,0.1C4,17.8-5.1,39.8,2.9,58.9c0.3,0.7,1,1.1,1.7,1.1c0.2,0,0.5,0,0.7-0.1
					c0.9-0.4,1.4-1.4,1-2.4c-7.3-17.2,1-37.1,18.2-44.2c0.9-0.4,1.4-1.4,1-2.4C25.2,10.2,24.5,9.8,23.8,9.8"/>
				<path id="Fill-1" d="M58.6,93.6c-0.2,0-0.5,0-0.7,0.1c-4.2,1.7-8.6,2.6-13,2.6s-8.8-0.9-12.9-2.6c-8.4-3.5-14.9-10-18.3-18.3
					c-0.3-0.7-1-1.1-1.7-1.1c-0.2,0-0.5,0-0.7,0.1c-0.9,0.4-1.4,1.4-1,2.4c3.8,9.3,11,16.5,20.3,20.3C35.2,99,40,100,44.9,100
					s9.7-1,14.4-2.9c0.9-0.4,1.4-1.4,1-2.4C59.9,94.1,59.3,93.6,58.6,93.6"/>
				<path id="Fill-4" d="M96.3,40.2c-0.3-0.7-1-1.1-1.7-1.1c-0.2,0-0.5,0-0.7,0.1c-0.9,0.4-1.4,1.4-1,2.4c3.5,8.4,3.5,17.6,0,25.9
					c-3.5,8.4-10,14.9-18.3,18.3c-0.9,0.4-1.4,1.4-1,2.4c0.3,0.7,1,1.1,1.7,1.1c0.2,0,0.5,0,0.7-0.1c9.3-3.8,16.5-11,20.3-20.3
					C100.1,59.7,100.1,49.5,96.3,40.2"/>
				<path id="Fill-9" d="M40.2,2.9c-0.9,0.4-1.4,1.4-1,2.4c0.3,0.7,1,1.1,1.7,1.1c0.2,0,0.5,0,0.7-0.1c4.2-1.7,8.6-2.6,12.9-2.6
					c13.3,0,25.9,7.9,31.3,20.9c0.3,0.7,1,1.1,1.7,1.1c0.2,0,0.5,0,0.7-0.1c0.9-0.4,1.4-1.4,1-2.4C83.2,8.7,69.2,0,54.5,0
					C49.8,0,44.9,0.9,40.2,2.9"/>
				<path id="Fill-12" d="M75,55.4c-0.5,0-1,0-1.5,0.1c-3.2,0.1-6.6,0.5-10,0.9c-1.3-1.4-2.6-2.8-3.9-4.1c0.6-2.4,1.2-4.9,1.5-7.4
					c5.5,2.5,10.7,4.2,15.7,5C76.3,51.7,75.7,53.6,75,55.4 M70.6,65.2c-1.4-1.9-2.8-3.8-4.3-5.6c2.4-0.3,4.8-0.4,7.2-0.6
					C72.7,61.1,71.7,63.2,70.6,65.2 M73.4,76.3c-1.8,0-3.5-0.2-5.3-0.4c1-1.3,1.8-2.6,2.7-3.9C71.7,73.4,72.5,74.9,73.4,76.3
					 M64.1,75.2c-4.2-0.9-8.4-2.4-12.6-4.5c2-3,3.7-6.2,5.1-9.6c1.8-0.3,3.6-0.6,5.4-0.9c2.3,2.6,4.5,5.5,6.5,8.5
					C67.3,70.9,65.7,73.1,64.1,75.2 M48.7,89.5c-2.1-3.1-3.6-6.3-4.7-9.4c2-2,3.8-4.1,5.5-6.4c4,2,8,3.5,12.1,4.6
					C57.9,82.4,53.6,86.2,48.7,89.5 M41.5,69c1.6,1,3.1,2,4.7,2.9c-1.1,1.4-2.3,2.8-3.5,4.2C42.1,73.7,41.7,71.3,41.5,69 M52.3,62
					c-1.2,2.5-2.5,4.8-3.9,7c-2.2-1.2-4.3-2.6-6.4-4.1C45.2,63.8,48.6,62.8,52.3,62 M42.5,53.4c0.6-2.7,1.4-5.4,2.3-8.1
					c3.8,2.3,7.4,5.1,10.7,8.1l0,0c-0.5,1.6-1,3.1-1.6,4.6c-4.2,0.9-8.5,2-12.6,3.3C41.6,58.5,42,55.8,42.5,53.4 M38.9,52.7
					c-0.6,3.1-1,6.1-1.2,9.1c-5.6-4.6-10.9-10.2-15.6-16.7c3-2,5.8-4.1,8.3-6.2c3.7,1.1,7.4,2.6,11.1,4.6
					C40.5,46.5,39.6,49.6,38.9,52.7 M16.9,37.1c3-0.1,6,0.1,9.1,0.7c-1.9,1.5-3.8,2.9-5.9,4.3C19,40.5,17.9,38.8,16.9,37.1
					 M38.6,30.8c2.2,1.7,4.4,3.3,6.6,4.8c-0.8,1.5-1.5,3-2.2,4.5c-3.1-1.7-6.2-3-9.4-4C35.4,34.4,37.1,32.6,38.6,30.8 M48.2,37.6
					c3.3,2.1,6.4,4,9.5,5.6c-0.3,2.1-0.7,4.3-1.1,6.3c-3.2-2.8-6.6-5.3-10.1-7.4c-0.1-0.1-0.2-0.1-0.3-0.2
					C46.8,40.5,47.4,39,48.2,37.6 M57.7,23.8c0.7,5.2,0.8,10.4,0.4,15.5c-2.7-1.4-5.4-3-8.2-4.9C52.2,30.6,54.8,27,57.7,23.8
					 M59.2,57c-0.4,0.1-0.7,0.1-1.1,0.2c0.1-0.3,0.2-0.7,0.3-1C58.7,56.5,59,56.8,59.2,57 M91.3,60.8c0.3-1.2,0.4-2.4,0.5-3.6
					c-3.9-1.3-8.7-1.7-13-1.8c0.6-1.7,1.1-3.4,1.6-5.1c1.2,0.1,2.3,0.1,3.4,0.1c2.6,0,5.2-0.3,7.7-0.8c-0.2-1.2-0.5-2.4-0.8-3.5
					c-3,0.6-6.1,0.8-9.4,0.6c1.5-6.5,2.2-13,2.1-19.4c-0.4-0.4-0.7-0.9-0.9-1.4c-0.8-2.1-1.9-4-3.1-5.7c0.9,8.4,0.4,17.4-1.7,26.2
					c-5.1-0.8-10.4-2.5-16.1-5.2c0.7-6.7,0.4-13.6-0.7-20.6c3.4-3.2,7.1-5.9,10.9-8c-1.1-0.8-2.3-1.5-3.6-2.1
					c-2.8,1.7-5.5,3.7-8.1,6c-0.6-3-1.5-6-2.5-9c-1-0.1-2.1-0.2-3.1-0.2c-0.3,0-0.5,0-0.7,0c1.4,4,2.5,8.1,3.2,12.1
					c-3.8,3.9-7.2,8.3-10.1,13.1c-2-1.4-4-2.9-6.1-4.4c5.1-6.8,7.8-13.7,7.5-20.1c-1.2,0.3-2.4,0.6-3.6,1c0,5.3-2.4,11.1-6.7,16.9
					c-3.6-2.9-7.4-6.1-11.2-9.6c-0.3,0.2-0.6,0.3-0.9,0.5c-0.9,0.4-1.8,0.8-2.6,1.2c4.3,3.9,8.4,7.5,12.4,10.7
					c-1.8,2.1-3.9,4.2-6.2,6.3c-4.9-1.2-9.8-1.7-14.6-1.3c-1-1.8-1.9-3.6-2.8-5.5c-0.8,1.2-1.5,2.5-2.1,3.9c0.3,0.7,0.7,1.4,1,2.1
					c-0.7,0.1-1.4,0.2-2.1,0.4c-0.5,1.3-0.8,2.6-1.1,4c1.6-0.4,3.3-0.8,5-1c1.3,2.3,2.7,4.5,4.2,6.7c-3,1.8-6.1,3.6-9.5,5.2
					c0.2,1.2,0.5,2.4,0.8,3.6c3.8-1.8,7.4-3.7,10.7-5.8c4.6,6.4,9.9,12,15.5,16.7c-6.9,2.7-13.2,6-17.9,9.8c0.1,0.1,0.2,0.3,0.2,0.4
					c0.4,1,0.9,2,1.4,2.9c4.5-3.8,11.3-7.5,19.4-10.6c0.2,4.3,0.9,8.5,2.1,12.6c-3.6,3.3-7.7,6.2-12.1,8.5c1.2,0.8,2.4,1.5,3.7,2.1
					c3.5-2,6.8-4.3,9.8-6.9c1.2,3,2.7,6,4.5,8.8c-0.8,0.5-1.5,0.9-2.3,1.3c0.5,0,1,0,1.5,0c2.2,0,4.4-0.3,6.5-0.7
					c5.4-3.7,10.1-8.1,14.1-12.9c3,0.5,6,0.8,8.9,0.8c0.3,0,0.5,0,0.8,0c0.2,0.4,0.4,0.9,0.6,1.3c2.9-1.6,5.6-3.6,7.8-6
					c-2.1,0.5-4.2,0.8-6.3,0.9c-1.4-2.7-2.9-5.2-4.5-7.7c1.8-3.1,3.3-6.3,4.6-9.6C83.3,59,88,59.6,91.3,60.8"/>
			</g>
		</g>
	</g>
</g>
</svg>
