<svg version="1.1" id="Layer_1" xmlns="http://www.w3.org/2000/svg" xmlns:xlink="http://www.w3.org/1999/xlink" x="0px" y="0px"
	 viewBox="0 0 100 100" style="enable-background:new 0 0 100 100;" xml:space="preserve">
<path fill="#68E8C8" d="M91.3,70.7c-24.4-21-29.2-33.1-25.7-65L68.2,6c-3.4,31.2,1,42.3,24.8,62.8L91.3,70.7z"/>
<path fill="#68E8C8" d="M83,50c-17.1,0-37.4-11.4-61.7-34.4l1.8-1.9C53.3,42.4,77,52.6,95.6,45l1,2.4
	C92.3,49.1,87.8,50,83,50"/>
<path fill="#4A4B9B" d="M4.7,54.8l-1-2.4c14.2-5.8,26.2-14.1,33.9-23.3c7.4-8.9,9.9-17.6,7-24.6l2.4-1
	c3.3,7.9,0.7,17.6-7.4,27.2C31.6,40.3,19.2,48.8,4.7,54.8"/>
<path fill="#4A4B9B" d="M39,96.6l-1-2.4C72.5,80.1,84.3,42.3,78,14l2.6-0.6C87.1,42.8,74.8,81.9,39,96.6"/>
<path fill="#68E8C8" d="M74.3,78.2c-9.5,0-19.6-3.1-29.3-9.1C29.8,59.7,17.2,44.2,9.4,25.5l2.4-1
	c7.6,18.2,19.9,33.2,34.6,42.4C61,76,76.2,78,89.2,72.7l1,2.4C85.2,77.2,79.8,78.2,74.3,78.2"/>
<path fill="#4A4B9B" d="M15.7,79.5l-2.1-1.6c9.8-12.7,37.9-21.3,59.5-22.3c6.6-0.3,18.4-0.1,22.9,4.7l-1.9,1.8
	c-2.8-3-10.4-4.4-20.8-3.9C46.5,59.5,23,70,15.7,79.5"/>
<path fill="#4A4B9B" d="M26.1,90.5l-1-2.4c15.2-6.3,26.3-18.6,31.1-34.6c4.6-15.3,3.4-32.8-3.5-49.1l2.4-1
	c7.1,16.9,8.3,34.9,3.5,50.8C53.6,71,42,83.9,26.1,90.5"/>
<path fill="#4A4B9B" d="M20.5,84.8l-2.2-1.5c18.1-26,17-43.8-3.8-63.6l1.8-1.9C38.1,38.5,39.3,57.9,20.5,84.8"/>
<path fill="#4A4B9B" d="M52.7,96.1C41.3,84.3,36.9,68.8,40.4,52.4c4-19,18.1-36.9,34.3-43.5l1,2.4
	C60.2,17.6,46.8,34.8,42.9,53c-2.3,11-2.2,27,11.7,41.3L52.7,96.1z"/>
<path fill="#68E8C8" d="M78.2,85C71,67.6,59.3,53.4,45.4,45c-13.7-8.3-28.1-10-40.5-5l-1-2.4c13.2-5.4,28.4-3.6,42.8,5.2
	C61.1,51.5,73.2,66.1,80.6,84L78.2,85z"/>
<path fill="#68E8C8" d="M45.5,98.7c-4.9,0-9.6-0.9-14.2-2.8c-9.1-3.8-16.2-10.8-20-19.9c-0.6-1.3,0.1-2.8,1.4-3.4
	c0.3-0.1,0.7-0.2,1-0.2c1.1,0,2,0.6,2.4,1.6c3.3,7.8,9.4,13.8,17.2,17.1c3.9,1.6,8,2.4,12.2,2.4s8.3-0.8,12.2-2.4
	c0.3-0.1,0.7-0.2,1-0.2c1.1,0,2,0.6,2.4,1.6c0.6,1.3-0.1,2.8-1.4,3.4C55.1,97.7,50.3,98.7,45.5,98.7"/>
<path fill="#FFFFFF" d="M13.7,71.1c-0.5,0-1,0.1-1.5,0.3c-2,0.8-2.9,3.1-2.1,5.1c3.9,9.4,11.3,16.7,20.7,20.6
	c4.7,1.9,9.6,2.9,14.7,2.9c5,0,10-1,14.7-2.9c2-0.8,2.9-3.1,2.1-5.1c-0.6-1.5-2-2.4-3.6-2.4c-0.5,0-1,0.1-1.5,0.3
	c-3.7,1.5-7.7,2.3-11.7,2.3s-7.9-0.8-11.7-2.3c-7.5-3.1-13.4-8.9-16.5-16.4C16.7,72.1,15.3,71.1,13.7,71.1 M13.7,73.7
	c0.5,0,1,0.3,1.2,0.8c3.4,8.1,9.7,14.4,17.9,17.8c4.1,1.7,8.4,2.5,12.7,2.5s8.6-0.8,12.7-2.5c0.2-0.1,0.3-0.1,0.5-0.1
	c0.5,0,1,0.3,1.2,0.8c0.3,0.7,0,1.4-0.7,1.7c-4.4,1.8-9.1,2.7-13.7,2.7s-9.3-0.9-13.7-2.7C23,91.1,16.2,84.3,12.5,75.5
	c-0.3-0.7,0-1.4,0.7-1.7C13.4,73.7,13.5,73.7,13.7,73.7"/>
<path fill="#4A4B9B" d="M74.8,88.5c-1.1,0-2-0.6-2.4-1.6c-0.6-1.3,0.1-2.8,1.4-3.4C90,76.9,97.8,58.4,91,42.3
	c-0.6-1.3,0.1-2.8,1.4-3.4c0.3-0.1,0.7-0.2,1-0.2c1.1,0,2,0.6,2.4,1.6c7.8,18.7-1.2,40.2-20,48C75.5,88.4,75.2,88.5,74.8,88.5"/>
<path fill="#4A4B9B" d="M6.5,60.4c-1.1,0-2-0.6-2.4-1.6c-7.8-18.7,1.2-40.2,20-48c0.3-0.1,0.7-0.2,1-0.2
	c1.1,0,2,0.6,2.4,1.6c0.6,1.3-0.1,2.8-1.4,3.4c-7.9,3.2-14,9.3-17.2,17.1S5.7,49,8.9,56.8c0.6,1.3-0.1,2.8-1.4,3.4
	C7.2,60.4,6.9,60.4,6.5,60.4"/>
<path fill="#FFFFFF" d="M25.2,9.4L25.2,9.4c-0.5,0-1,0.1-1.5,0.3C4.1,17.7-5.2,40,2.9,59.3c0.6,1.5,2,2.4,3.6,2.4
	c0.5,0,1-0.1,1.5-0.3c2-0.8,2.9-3.1,2.1-5.1C7,48.9,7,40.7,10.2,33.2c3.1-7.5,9-13.3,16.5-16.4c2-0.8,2.9-3.1,2.1-5.1
	C28.2,10.3,26.8,9.4,25.2,9.4 M25.2,12c0.5,0,1,0.3,1.2,0.8c0.3,0.7,0,1.4-0.7,1.7c-8.2,3.4-14.5,9.7-17.9,17.8s-3.4,17,0,25.1
	C8,58,7.7,58.8,7,59.1c-0.2,0.1-0.3,0.1-0.5,0.1c-0.5,0-1-0.3-1.2-0.8c-7.5-18,1.1-38.8,19.3-46.3C24.8,12,25,12,25.2,12"/>
<path fill="#68E8C8" d="M86.6,27.6c-1.1,0-2-0.6-2.4-1.6C81,18.2,74.8,12.1,67,8.9c-3.9-1.6-8-2.4-12.2-2.4
	s-8.3,0.8-12.2,2.4c-0.3,0.1-0.7,0.2-1,0.2c-1.1,0-2-0.6-2.4-1.6c-0.6-1.3,0.1-2.8,1.4-3.4c4.6-1.9,9.3-2.8,14.2-2.8
	S64.4,2.2,69,4.1C78.1,7.9,85.3,14.9,89,24c0.6,1.3-0.1,2.8-1.4,3.4C87.3,27.5,87,27.6,86.6,27.6"/>
<path fill="#FFFFFF" d="M54.8,0L54.8,0c-5,0-10,1-14.7,2.9C38.2,3.7,37.2,6,38,8c0.6,1.5,2,2.4,3.6,2.4
	c0.5,0,1-0.1,1.5-0.3c3.8-1.5,7.7-2.3,11.7-2.3s7.9,0.8,11.7,2.3C74,13.2,79.9,19,83,26.5c0.6,1.5,2,2.4,3.6,2.4
	c0.5,0,1-0.1,1.5-0.3c2-0.8,2.9-3.1,2.1-5.1C86.3,14.1,79,6.8,69.5,2.9C64.8,1,59.9,0,54.8,0 M54.8,2.6c4.6,0,9.3,0.9,13.7,2.7
	c8.8,3.6,15.7,10.4,19.3,19.2c0.3,0.7,0,1.4-0.7,1.7c-0.2,0.1-0.3,0.1-0.5,0.1c-0.5,0-1-0.3-1.2-0.8C82,17.4,75.7,11,67.5,7.7
	C63.4,6,59.1,5.2,54.8,5.2S46.2,6,42.1,7.7c-0.2,0.1-0.3,0.1-0.5,0.1c-0.5,0-1-0.3-1.2-0.8c-0.3-0.7,0-1.4,0.7-1.7
	C45.6,3.5,50.2,2.6,54.8,2.6"/>
<g id="Group-27" transform="translate(31.695600, 16.588591)">
	<g id="Clip-26">
	</g>
	<path fill="#FFFFFF" d="M61.8,20.9L61.8,20.9c-0.5,0-1,0.1-1.5,0.3c-2,0.8-2.9,3.1-2.1,5.1c6.4,15.4-1,33.1-16.5,39.5
		c-2,0.8-2.9,3.1-2.1,5.1c0.6,1.5,2,2.4,3.6,2.4c0.5,0,1-0.1,1.5-0.3c19.5-8,28.8-30.3,20.7-49.7C64.8,21.8,63.4,20.9,61.8,20.9
		 M61.8,23.4c0.5,0,1,0.3,1.2,0.8c7.5,18-1.1,38.8-19.3,46.3c-0.2,0.1-0.3,0.1-0.5,0.1c-0.5,0-1-0.3-1.2-0.8c-0.3-0.7,0-1.4,0.7-1.7
		C59.5,61.2,67.5,42,60.6,25.2c-0.3-0.7,0-1.4,0.7-1.7C61.4,23.5,61.6,23.4,61.8,23.4"/>
</g>
</svg>
