<?xml version="1.0" encoding="utf-8"?>
<!-- Generator: Adobe Illustrator 21.0.2, SVG Export Plug-In . SVG Version: 6.00 Build 0)  -->
<svg version="1.1" id="Layer_1" xmlns="http://www.w3.org/2000/svg" xmlns:xlink="http://www.w3.org/1999/xlink" x="0px" y="0px"
	 viewBox="0 0 100 100" style="enable-background:new 0 0 100 100;" xml:space="preserve">
<g id="Symbols">
	<g id="Navigation-_x2F_-Default" transform="translate(-1264.000000, -30.000000)">
		<path id="Shape" d="M1335.5,92.9h-4.5l-1.6-1.5c5.6-6.5,9-15,9-24.2c0-20.5-16.6-37.2-37.2-37.2c-20.5,0-37.2,16.6-37.2,37.2
			s16.6,37.2,37.2,37.2c9.2,0,17.7-3.4,24.2-9l1.5,1.6v4.5l28.6,28.5l8.5-8.5L1335.5,92.9L1335.5,92.9z M1301.2,92.9
			c-14.2,0-25.7-11.5-25.7-25.7s11.5-25.7,25.7-25.7s25.7,11.5,25.7,25.7S1315.4,92.9,1301.2,92.9z"/>
	</g>
</g>
</svg>
