<?xml version="1.0" encoding="utf-8"?>
<!-- Generator: Adobe Illustrator 21.0.2, SVG Export Plug-In . SVG Version: 6.00 Build 0)  -->
<svg version="1.1" id="Layer_1" xmlns="http://www.w3.org/2000/svg" xmlns:xlink="http://www.w3.org/1999/xlink" x="0px" y="0px"
	 viewBox="0 0 100 90.6" style="enable-background:new 0 0 100 90.6;" xml:space="preserve">
<g id="Home">
	<g id="Group-11" transform="translate(-494.000000, -1471.000000)">
		<g transform="translate(494.000000, 1471.000000)">
			<rect id="Rectangle-path" x="71.9" y="28.1" width="18.8" height="3.1"/>
			<rect id="Rectangle-path_1_" x="71.9" y="21.9" width="18.8" height="3.1"/>
			<rect id="Rectangle-path_2_" x="71.9" y="34.4" width="18.8" height="3.1"/>
			<rect id="Rectangle-path_3_" x="71.9" y="40.6" width="18.8" height="3.1"/>
			<rect id="Rectangle-path_4_" x="50" y="59.4" width="18.8" height="3.1"/>
			<rect id="Rectangle-path_5_" x="28.1" y="65.6" width="18.8" height="3.1"/>
			<rect id="Rectangle-path_6_" x="28.1" y="59.4" width="18.8" height="3.1"/>
			<rect id="Rectangle-path_7_" x="50" y="65.6" width="18.8" height="3.1"/>
			<rect id="Rectangle-path_8_" x="28.1" y="71.9" width="18.8" height="3.1"/>
			<rect id="Rectangle-path_9_" x="50" y="71.9" width="18.8" height="3.1"/>
			<rect id="Rectangle-path_10_" x="28.1" y="78.1" width="18.8" height="3.1"/>
			<rect id="Rectangle-path_11_" x="50" y="78.1" width="18.8" height="3.1"/>
			<path id="Shape" d="M67.2,43.8H29.7c-0.9,0-1.6-0.7-1.6-1.6V23.4c0-0.9,0.7-1.6,1.6-1.6h37.5c0.9,0,1.6,0.7,1.6,1.6v18.7
				C68.8,43.1,68.1,43.8,67.2,43.8z M31.3,40.6h34.4V25H31.3V40.6z"/>
			<path id="Shape_1_" d="M89.1,81.3H73.4c-0.9,0-1.6-0.7-1.6-1.6V60.9c0-0.9,0.7-1.6,1.6-1.6H89c0.9,0,1.6,0.7,1.6,1.6v18.8
				C90.6,80.6,89.9,81.3,89.1,81.3z M75,78.1h12.5V62.5H75V78.1z"/>
			<rect id="Rectangle-path_12_" x="73.4" y="65.6" width="15.6" height="3.1"/>
			<rect id="Rectangle-path_13_" x="73.4" y="71.9" width="15.6" height="3.1"/>
			<rect id="Rectangle-path_14_" x="28.1" y="15.6" width="62.5" height="3.1"/>
			<path id="Shape_2_" d="M89.1,56.3H29.7c-0.9,0-1.6-0.7-1.6-1.6v-6.3c0-0.9,0.7-1.6,1.6-1.6h59.4c0.9,0,1.6,0.7,1.6,1.6v6.3
				C90.6,55.6,89.9,56.3,89.1,56.3z M31.3,53.1h56.3V50H31.3V53.1z"/>
			<rect id="Rectangle-path_15_" x="40.6" y="31.3" width="3.1" height="3.1"/>
			<rect id="Rectangle-path_16_" x="46.9" y="31.3" width="3.1" height="3.1"/>
			<rect id="Rectangle-path_17_" x="53.1" y="31.3" width="3.1" height="3.1"/>
			<path id="Shape_3_" d="M89.1,90.6H10.9C4.9,90.6,0,85.7,0,79.7V10.9C0,10,0.7,9.3,1.6,9.3h4.7v3.1H3.1v67.2
				c0,4.3,3.5,7.8,7.8,7.8s7.8-3.5,7.8-7.8V9.4c0-0.4,0.2-0.8,0.5-1.1L27,0.5c0.6-0.6,1.6-0.6,2.2,0l6.7,6.7l6.7-6.7
				c0.6-0.6,1.6-0.6,2.2,0l6.7,6.7l6.7-6.7c0.6-0.6,1.6-0.6,2.2,0l6.7,6.7l6.7-6.7c0.6-0.6,1.6-0.6,2.2,0l6.7,6.7l6.7-6.7
				c0.6-0.6,1.6-0.6,2.2,0l7.8,7.8C99.8,8.6,100,9,100,9.4v70.3C100,85.7,95.1,90.6,89.1,90.6z M18.6,87.5h70.5
				c4.3,0,7.8-3.5,7.8-7.8V10l-6.3-6.3l-6.7,6.7c-0.6,0.6-1.6,0.6-2.2,0L75,3.8l-6.7,6.7c-0.6,0.6-1.6,0.6-2.2,0l-6.7-6.7l-6.7,6.7
				c-0.6,0.6-1.6,0.6-2.2,0l-6.7-6.7L37,10.5c-0.6,0.6-1.6,0.6-2.2,0l-6.7-6.7L21.9,10v69.7C21.9,82.7,20.6,85.5,18.6,87.5z"/>
			<path id="Shape_4_" d="M12.5,81.3H9.4V10.9c0-0.9,0.7-1.6,1.6-1.6h4.7v3.1h-3.1v68.9H12.5z"/>
		</g>
	</g>
</g>
</svg>
