<?xml version="1.0" encoding="utf-8"?>
<!-- Generator: Adobe Illustrator 21.0.2, SVG Export Plug-In . SVG Version: 6.00 Build 0)  -->
<svg version="1.1" id="Layer_1" xmlns="http://www.w3.org/2000/svg" xmlns:xlink="http://www.w3.org/1999/xlink" x="0px" y="0px"
	 viewBox="0 0 100 33" style="enable-background:new 0 0 100 33;" xml:space="preserve">
<style type="text/css">
	.st0{fill:#4A4A4A;}
</style>
<g id="Home">
	<g id="Group-4" transform="translate(-1085.000000, -2613.000000)">
		<g transform="translate(1085.000000, 2613.000000)">
			<path id="Fill-3" class="st0" d="M3.9,15.3c0-0.1,0.1-0.1,0.1-0.2c0-0.1,0-0.2-0.1-0.3c-0.2-0.3-0.7-0.5-1-0.5
				c-0.5,0.1-1,0.5-1.1,1c-0.1,0.5,0.3,0.9,0.8,0.9C2.9,16.2,3.7,15.7,3.9,15.3"/>
			<path id="Fill-4" class="st0" d="M9.2,14.6c0-0.3-0.3-0.6-1.1-0.9c-2.3-0.8-3.7-2.9-4.2-6.1c0,0,0,0,0,0c0,0,0,0,0,0
				C3.8,7.5,3.6,7.4,3.5,7.5C3.2,7.8,3.4,8.9,4.1,12c0,0,0.3,1.2,0.3,1.2c0.2,0.7,0.2,1.3,0.1,1.8c-0.1,0.6-0.3,1.1-0.7,1.9
				l-0.7,1.4c-1.8,3.7-2.4,5-2.2,5.3c0.1,0.1,0.3,0,0.5-0.2c0,0,0,0,0,0c0,0,0,0,0,0c0.5-1.2,1-2.2,1.6-3.2c1.3-2.1,2.9-3.5,4.7-4.5
				c0.7-0.3,1.1-0.6,1.3-0.9C9.1,14.7,9.2,14.7,9.2,14.6"/>
			<path id="Fill-5" class="st0" d="M25.3,8.3C25.3,8.3,25.3,8.3,25.3,8.3C25.3,8.3,25.4,8.3,25.3,8.3c0.3-0.1,0.5-0.2,0.5-0.3
				c0,0,0-0.1,0-0.1c0-0.4-1.7-0.5-6-0.4c0,0-1.6,0-1.6,0c-0.8,0-1.4-0.1-1.9-0.3C15.9,6.9,15.5,6.5,15,6c0,0-0.8-1-0.8-1
				c-1.9-2.5-2.7-3.3-3-3c0,0-0.1,0.1-0.1,0.1C11,2.2,11,2.3,11.1,2.5c0,0,0,0,0,0c0,0,0,0,0,0c2.1,2.2,2.9,4.8,2.2,7.8
				c-0.2,1-0.2,1.5,0,1.6c0.2,0.1,0.7-0.1,1.6-0.8C17.5,8.9,20.9,7.9,25.3,8.3"/>
			<path id="Fill-6" class="st0" d="M18.3,3.9c-0.5-0.2-1.1,0.2-1.5,0.8c-0.4,0.6-0.4,1.7-0.1,1.8c0.3,0.1,1.4-0.5,1.8-1.1
				C18.8,4.7,18.7,4.1,18.3,3.9"/>
			<path id="Fill-7" class="st0" d="M12.3,24.5c0,0,1.1-1.3,1.1-1.3c0.6-0.7,1.1-1.2,1.7-1.6c0.6-0.3,1.2-0.6,2.1-0.7l1.7-0.3
				c4.7-0.8,6.4-1.1,6.5-1.6c0-0.2-0.2-0.3-0.5-0.4c0,0,0,0,0,0c0,0,0,0,0,0c-4.7,1.2-8.2,0.7-10.5-1.2c-0.7-0.6-1.2-0.8-1.5-0.6
				c-0.1,0-0.1,0.1-0.2,0.2c-0.2,0.3-0.2,0.8-0.2,1.6c0.1,2.2-0.6,4.5-2,6.8c-0.6,1-1.4,2-2.4,3c0,0,0,0,0,0c0,0,0,0,0,0
				c-0.1,0.2-0.1,0.5,0,0.6C8.4,29.2,9.4,28,12.3,24.5"/>
			<path id="Fill-8" class="st0" d="M15.2,24.3c0.2,0.4,0.4,0.6,0.8,0.7c0.3,0.1,0.5,0.1,0.8-0.1c0.2-0.1,0.4-0.4,0.5-0.7
				c0.1-0.4,0.1-0.8-0.1-1.1c-0.3-0.6-1.4-1.2-1.8-1c-0.1,0-0.1,0.1-0.2,0.2c0,0.1-0.1,0.2-0.1,0.3C15,23.1,15,23.9,15.2,24.3"/>
			<path id="Fill-9" class="st0" d="M35.3,12.6c0,0,0.1-0.1,0.1-0.1c0,0,0-0.1-0.1-0.1C35,12.2,28.2,8,22.4,9.5c0,0-0.1,0-0.1,0.1
				c0,0,0,0,0,0.1c0,0.1,0,0.1,0.1,0.1c3.8,0.3,7.5,2.3,8.6,3l0.2,0.1L31,13c-1.1,0.8-5,3.6-8.9,4.6c-0.1,0-0.1,0.1-0.1,0.2
				c0,0.1,0.1,0.1,0.1,0.1C28,18.4,35,12.8,35.3,12.6"/>
			<path id="Fill-10" class="st0" d="M11.3,4.6c0,0,0.1-0.1,0.1-0.1C10.2,0.9,5.4,0,5.2,0c0,0-0.1,0-0.1,0c0,0,0,0-0.1,0.1
				C5,0.3,3.3,5.9,5.3,8.8c0,0,0.1,0,0.1,0c0,0,0.1-0.1,0.1-0.1C5,6.1,5.7,2.9,6,2l0-0.1l0.1,0c0.7,0.2,3.3,0.9,5,2.7
				C11.1,4.7,11.2,4.7,11.3,4.6"/>
			<path id="Fill-11" class="st0" d="M8.8,25.6c0-0.1,0-0.1,0-0.2c0,0-0.1,0-0.2,0c-2.4,2.7-5.7,4.3-6.7,4.7l-0.2,0.1l0-0.2
				c0-1.1,0.3-5,1.7-8.2c0-0.1,0-0.1,0-0.2c0,0-0.1,0-0.1,0C0.2,25.5,0,32.5,0,32.8c0,0,0,0.1,0,0.1c0,0,0.1,0,0.1,0
				C0.4,32.8,6.5,30.6,8.8,25.6"/>
			<path id="Fill-12" class="st0" d="M49.9,21.4h1.9v1.8h0c0.6-1.3,2-2.1,3.5-2.1c2.8,0,4,1.8,4,4.8v6.7h-2v-5.8
				c0-2.6-0.5-3.9-2.3-4c-2.2,0-3.3,1.9-3.3,4.6v5.2h-2V21.4"/>
			<path id="Fill-13" class="st0" d="M74.4,27.3c-0.4,0-0.8,0-1.3,0c-1.1,0-3.7,0.2-3.7,2.2c0,1.2,1.1,1.8,2,1.8c2,0,3-1.3,3-3V27.3
				z M68.6,22.2c1-0.6,2.2-1.1,3.5-1.1c3.1,0,4.3,1.6,4.3,4.7v4.7c0,1.3,0,1.9,0.1,2.2h-1.9v-1.5h0c-0.5,0.7-1.5,1.7-3.3,1.7
				c-2.3,0-3.9-1.1-3.9-3.5c0-2.8,2.9-3.7,5-3.7c0.8,0,1.3,0,2.1,0.1c0-1.9-0.7-2.9-2.6-2.9c-1.1,0-2.3,0.4-3.1,1.1L68.6,22.2
				L68.6,22.2z"/>
			<path id="Fill-14" class="st0" d="M84.2,23.2c-0.3-0.1-0.6-0.1-0.8-0.1c-1.9,0-3.1,1.8-3.1,4.6v4.9h-2.1V21.5h2v1.8h0
				c0.6-1.2,1.8-2,2.9-2c0.5,0,0.7,0,1,0.1V23.2"/>
			<path id="Fill-15" class="st0" d="M94.6,31.3c2.3,0,3.3-2.2,3.3-4.2c0-2.1-1.2-4.2-3.3-4.2c-2.1,0-3.4,2.1-3.4,4.2
				C91.2,29.1,92.2,31.3,94.6,31.3z M94.6,21.2c3.3,0,5.4,2.5,5.4,5.9c0,3.2-2.2,5.9-5.4,5.9c-3.2,0-5.5-2.7-5.5-5.9
				C89.1,23.6,91.3,21.2,94.6,21.2L94.6,21.2z"/>
			<path id="Fill-16" class="st0" d="M66.5,21.4h-2.9v-3.3l-2.1,0.7v2.6l-1.7,1.7h1.7v6.6c0,2.3,1.3,3.3,3.5,3.3
				c0.6,0,1.2-0.1,1.7-0.3v-1.7c-0.3,0.2-0.8,0.4-1.3,0.4c-1,0-1.8-0.7-1.8-2v-6.2h2.9V21.4"/>
			<polygon id="Fill-17" class="st0" points="85.5,32.7 87.5,32.7 87.5,21.4 85.5,21.4 			"/>
			<path id="Fill-18" class="st0" d="M86.5,19.9c0.7,0,1.3-0.6,1.3-1.3c0-0.7-0.6-1.3-1.3-1.3c-0.7,0-1.3,0.6-1.3,1.3
				C85.2,19.3,85.8,19.9,86.5,19.9"/>
			<path id="Fill-19" class="st0" d="M41.3,31c3.4,0,4.8-3,4.8-6c0-3.1-1.6-6.1-4.8-6c-3.2,0-4.8,2.9-4.8,6
				C36.5,28.1,37.9,31,41.3,31z M41.3,17c4.5,0,7.1,3.4,7.1,8c0,4.7-2.6,8-7.1,8c-4.5,0-7.1-3.3-7.1-8C34.2,20.4,36.8,17,41.3,17
				L41.3,17z"/>
		</g>
	</g>
</g>
</svg>
