<?xml version="1.0" encoding="utf-8"?>
<!-- Generator: Adobe Illustrator 21.0.2, SVG Export Plug-In . SVG Version: 6.00 Build 0)  -->
<svg version="1.1" id="Layer_1" xmlns="http://www.w3.org/2000/svg" xmlns:xlink="http://www.w3.org/1999/xlink" x="0px" y="0px"
	 viewBox="0 0 100 100" style="enable-background:new 0 0 100 100;" xml:space="preserve">
<g id="Home">
	<g id="Group-5" transform="translate(-792.000000, -1234.000000)">
		<g transform="translate(792.000000, 1234.000000)">
			<polygon id="Shape" points="57.8,90.6 42.2,90.6 42.2,29.7 45.3,29.7 45.3,87.5 54.7,87.5 54.7,29.7 57.8,29.7 			"/>
			<path id="Shape_1_" d="M57.8,17.2h-3.1V7.8c0-2.6-2.1-4.7-4.7-4.7s-4.7,2.1-4.7,4.7v9.4h-3.1V7.8C42.2,3.5,45.7,0,50,0
				s7.8,3.5,7.8,7.8V17.2z"/>
			<path id="Shape_2_" d="M95.3,100H4.7v-1.6c0-6,4.9-10.9,10.9-10.9H39v3.1H15.6c-3.8,0-6.9,2.7-7.7,6.3H92
				c-0.7-3.6-3.9-6.3-7.7-6.3H60.9v-3.1h23.4c6,0,10.9,4.9,10.9,10.9L95.3,100L95.3,100z"/>
			<rect id="Rectangle-path" x="48.4" y="6.3" width="3.1" height="3.1"/>
			<path id="Shape_3_" d="M50,34.4c-6,0-10.9-4.9-10.9-10.9s4.9-11,10.9-11s10.9,4.9,10.9,10.9S56,34.4,50,34.4z M50,15.6
				c-4.3,0-7.8,3.5-7.8,7.8s3.5,7.8,7.8,7.8s7.8-3.5,7.8-7.8S54.3,15.6,50,15.6z"/>
			<path id="Shape_4_" d="M95.3,28.1H89V25h6.3c0.9,0,1.6-0.7,1.6-1.6s-0.7-1.6-1.6-1.6H59.4v-3.1h35.9c2.6,0,4.7,2.1,4.7,4.7
				S97.9,28.1,95.3,28.1z"/>
			<rect id="Rectangle-path_1_" x="59.4" y="25" width="20.3" height="3.1"/>
			<path id="Shape_5_" d="M10.9,28.1H4.7C2.1,28.1,0,26,0,23.4s2.1-4.7,4.7-4.7h35.9v3.1H4.7c-0.9,0-1.6,0.7-1.6,1.6S3.8,25,4.7,25
				H11v3.1H10.9z"/>
			<rect id="Rectangle-path_2_" x="20.3" y="25" width="20.3" height="3.1"/>
			<path id="Shape_6_" d="M15.6,70.3C7,70.3,0,63.3,0,54.7v-1.6h31.3v1.6C31.3,63.3,24.2,70.3,15.6,70.3z M3.2,56.3
				c0.8,6.2,6,10.9,12.4,10.9S27.3,62.4,28,56.3H3.2z"/>
			<path id="Shape_7_" d="M3.1,56.3c-0.2,0-0.4,0-0.6-0.1c-0.8-0.3-1.1-1.3-0.8-2.1L14.2,26c0.4-0.8,1.3-1.1,2.1-0.8
				c0.8,0.4,1.1,1.3,0.8,2.1l-12.5,28C4.3,55.9,3.7,56.3,3.1,56.3z"/>
			<path id="Shape_8_" d="M28.1,56.3c-0.6,0-1.2-0.3-1.4-0.9L14.2,27.2c-0.4-0.8,0-1.7,0.8-2.1s1.7,0,2.1,0.8L29.6,54
				c0.4,0.8,0,1.7-0.8,2.1C28.6,56.2,28.3,56.3,28.1,56.3z"/>
			<path id="Shape_9_" d="M84.4,70.3c-8.6,0-15.6-7-15.6-15.6v-1.6H100v1.6C100,63.3,93,70.3,84.4,70.3z M72,56.3
				c0.8,6.2,6,10.9,12.4,10.9S96,62.4,96.8,56.3H72z"/>
			<path id="Shape_10_" d="M71.9,56.3c-0.2,0-0.4,0-0.6-0.1c-0.8-0.3-1.1-1.3-0.8-2.1L83,26c0.3-0.8,1.3-1.1,2.1-0.8
				c0.8,0.4,1.1,1.3,0.8,2.1l-12.6,28C73,55.9,72.5,56.3,71.9,56.3z"/>
			<path id="Shape_11_" d="M96.9,56.3c-0.6,0-1.2-0.3-1.4-0.9L82.9,27.2c-0.4-0.8,0-1.7,0.8-2.1s1.7,0,2.1,0.8L98.3,54
				c0.4,0.8,0,1.7-0.8,2.1C97.3,56.2,97.1,56.3,96.9,56.3z"/>
			<rect id="Rectangle-path_3_" x="48.4" y="81.3" width="3.1" height="3.1"/>
			<rect id="Rectangle-path_4_" x="48.4" y="75" width="3.1" height="3.1"/>
			<rect id="Rectangle-path_5_" x="48.4" y="68.8" width="3.1" height="3.1"/>
		</g>
	</g>
</g>
</svg>
