<?xml version="1.0" encoding="utf-8"?>
<!-- Generator: Adobe Illustrator 21.1.0, SVG Export Plug-In . SVG Version: 6.00 Build 0)  -->
<svg version="1.1" id="Layer_1" xmlns="http://www.w3.org/2000/svg" xmlns:xlink="http://www.w3.org/1999/xlink" x="0px" y="0px"
	 viewBox="0 0 100 93.8" style="enable-background:new 0 0 100 93.8;" xml:space="preserve">
<g id="Read">
	<g id="_x31_1-social-engagement" transform="translate(-861.000000, -123.000000)">
		<g transform="translate(861.000000, 123.000000)">
			<path id="Shape" d="M26.6,93.8c-0.4,0-0.8-0.2-1.1-0.5L10.3,78.1H7.8c-4.3,0-7.8-3.5-7.8-7.8v-50c0-4.3,3.5-7.8,7.8-7.8h26.6v3.1
				H7.8c-2.6,0-4.7,2.1-4.7,4.7v50c0,2.6,2.1,4.7,4.7,4.7h3.1c0.4,0,0.8,0.2,1.1,0.5l13,13V76.6c0-0.9,0.7-1.6,1.6-1.6h28.1
				c2.6,0,4.7-2.1,4.7-4.7V54.7c0-0.9,0.7-1.6,1.6-1.6h7.7l-9.1-21.3c-0.1-0.2-0.1-0.4-0.1-0.6V20.3c0-2.6-2.1-4.7-4.7-4.7H43.8
				v-3.1h10.9c4.3,0,7.8,3.5,7.8,7.8v10.6l9.2,21.6c0.1,0.2,0.1,0.4,0.1,0.6v1.6c0,0.9-0.7,1.6-1.6,1.6h-7.8v14.1
				c0,4.3-3.5,7.8-7.8,7.8H28.1v14.1c0,0.6-0.4,1.2-1,1.4C27,93.7,26.8,93.8,26.6,93.8z"/>
			<path id="Shape_1_" d="M73.4,81.2c-0.2,0-0.4,0-0.6-0.1c-0.6-0.2-1-0.8-1-1.4V65.6h-6.3v-3.1h7.8c0.9,0,1.6,0.7,1.6,1.6v11.9
				l13-13c0.3-0.3,0.7-0.5,1.1-0.5h3.1c2.6,0,4.7-2.1,4.7-4.7v-50c0-2.6-2.1-4.7-4.7-4.7H45.3c-2.6,0-4.7,2.1-4.7,4.7v14.1
				c0,0.2,0,0.4-0.1,0.6l-9.1,21.3h7.7c0.9,0,1.6,0.7,1.6,1.6v12.5c0,2.6,2.1,4.7,4.7,4.7h10.9v3.1H45.3c-4.3,0-7.8-3.5-7.8-7.8
				V46.9h-7.8c-0.9,0-1.6-0.7-1.6-1.6v-1.6c0-0.2,0-0.4,0.1-0.6l9.2-21.6V7.8C37.5,3.5,41,0,45.3,0h46.9c4.3,0,7.8,3.5,7.8,7.8v50
				c0,4.3-3.5,7.8-7.8,7.8h-2.5L74.5,80.8C74.2,81.1,73.8,81.2,73.4,81.2z"/>
			<rect id="Rectangle-path" x="68.8" y="12.5" width="21.9" height="3.1"/>
			<rect id="Rectangle-path_1_" x="68.8" y="18.8" width="21.9" height="3.1"/>
			<rect id="Rectangle-path_2_" x="68.8" y="25" width="15.6" height="3.1"/>
			<rect id="Rectangle-path_3_" x="9.4" y="21.9" width="18.8" height="3.1"/>
			<rect id="Rectangle-path_4_" x="9.4" y="28.1" width="18.8" height="3.1"/>
			<rect id="Rectangle-path_5_" x="9.4" y="34.4" width="12.5" height="3.1"/>
		</g>
	</g>
</g>
</svg>
