<?xml version="1.0" encoding="utf-8"?>
<!-- Generator: Adobe Illustrator 21.0.2, SVG Export Plug-In . SVG Version: 6.00 Build 0)  -->
<svg version="1.1" id="Layer_1" xmlns="http://www.w3.org/2000/svg" xmlns:xlink="http://www.w3.org/1999/xlink" x="0px" y="0px"
	 viewBox="0 0 76.1 100" style="enable-background:new 0 0 76.1 100;" xml:space="preserve">
<style type="text/css">
	.st0{filter:url(#Adobe_OpacityMaskFilter);}
	.st1{fill:#FFFFFF;}
	.st2{mask:url(#mask-2);fill:#4A4A4A;}
	.st3{fill:#FFFFFE;}
</style>
<g id="Home">
	<g id="RBC-logo" transform="translate(-467.000000, -2586.000000)">
		<g transform="translate(467.000000, 2586.000000)">
			<g id="Group-3">
				<g id="Clip-2">
				</g>
				<defs>
					<filter id="Adobe_OpacityMaskFilter" filterUnits="userSpaceOnUse" x="0" y="0" width="76.1" height="100">
						<feColorMatrix  type="matrix" values="1 0 0 0 0  0 1 0 0 0  0 0 1 0 0  0 0 0 1 0"/>
					</filter>
				</defs>
				<mask maskUnits="userSpaceOnUse" x="0" y="0" width="76.1" height="100" id="mask-2">
					<g class="st0">
						<polygon id="path-1" class="st1" points="38,0 0,0 0,100 76.1,100 76.1,0 						"/>
					</g>
				</mask>
				<path id="Fill-1" class="st2" d="M76.1,87.8c0,3.3-1.4,5.2-4,6.2c-10.3,4-22.4,6-34,6c-11.6,0-23.7-2-34-6c-2.6-1-4-2.9-4-6.2V0
					h76.1V87.8"/>
			</g>
			<path id="Fill-4" class="st1" d="M20.4,53.5C9.9,46.9,6.4,44,6.1,39.7c-0.1-0.9,0.1-2.4,0.5-3.4l-1-0.7c-0.8,1.3-1.3,2.9-1.3,4.5
				c0,2.5,0.8,4.4,1.8,5.9c1.5,2.3,3,3.7,6.9,6.6c4.1,3.1,6.9,6.7,8.6,10.5h0.6v-4.3c5.6,3.2,10.5,6.2,12.9,11.5h0.6
				C34.7,64.7,31.6,60.5,20.4,53.5"/>
			<path id="Fill-5" class="st1" d="M51.3,39.1c-2.3,1-3.9,2.4-5.3,4.4l4.7-0.2C50.9,41.2,51.1,39.8,51.3,39.1z M68.3,55.9
				c0.5-1.2,0.8-2.3,0.9-3.7l-6.9-0.4c-0.3,1.9-0.8,3.6-1.4,5L68.3,55.9z M60.8,38.8c0.5,1.3,0.9,2.6,1.1,3.8l4-0.2
				C64.6,40.9,62.8,39.6,60.8,38.8z M59,42.8c-0.7-2.4-1.5-4.1-1.9-4.8c-0.3,0-0.6,0-0.8,0c-0.5,0-0.9,0.1-1.4,0.1
				c-0.7,1.7-1.2,3.4-1.7,5.1L59,42.8z M62.4,45c0.2,1.7,0.2,3.3,0.1,4.8l6.6-0.4c-0.2-1.5-0.6-2.9-1.2-4.2L62.4,45z M60.1,50
				c-0.1-1.9-0.3-3.6-0.6-5.1l-6.7-0.3c-0.5,2-0.8,4-0.9,5.8L60.1,50z M61.1,35.7l0.8-1.1L60.7,33l0.2-0.4l3.4,1.8l-0.7,2.3
				c0.5,0.3,1.1,0.6,1.7,1l2.2-3.6l-5.7-3H49.2L39,37.3c1.9,1.3,3.7,2.8,4.9,4.2c2.7-4,7.6-6.5,12.3-6.5
				C57.8,35,59.6,35.2,61.1,35.7z M35.9,35.3l5.6-3.4c-1.1-0.5-2.3-0.9-3.8-0.9c-1.9,0-5.2,0.9-6.8,1.1
				C31.7,32.6,34.2,34.2,35.9,35.3z M37.1,22.6c-2-0.4-3.1-0.2-4.3,0.9c0.6,0.3,1.3,0.4,2,0.4C36,23.7,36.7,23.1,37.1,22.6z
				 M68.9,70.2h-0.7c0-3.9-3.6-5-7.4-5H49c0.4,1.9,0.6,4.2,0.3,6.3h-0.6c-1.1-8.8-6.1-13.2-13.1-17.9v4H35c-1.9-4.1-5.9-8-9.8-10.8
				h0c-1-0.7-2.1-1.5-3.1-2.2V49h-0.6c-1.6-4.3-4.6-7.5-8.8-11.3c-4.6-4.1-6.4-6.6-7.5-9.4c-0.6-1.7-0.8-3.1-0.9-5
				c0-3.4,1.7-6.4,3.8-7.6v1.6c-1.1,1.4-1.6,3.2-1.6,5c0,1.7,0.4,3.5,1.2,5.1C10.3,32.3,19,38.3,24.5,42
				c17.1,11.5,20.5,13.5,23.4,19.6c0.3,0.7,0.6,1.6,0.9,2.7c2.5-0.4,11.5-1.7,13.1-2c0.3-0.1,1-0.1,1.3-0.2c1.5-1,2.8-2.2,3.8-3.8
				l-6.6-0.5c-0.3,0.8-0.7,1.4-1,1.9H59c0.2-0.7,0.3-1.3,0.5-2l-1.7-0.1v-0.4l1.8-0.2c0.3-1.9,0.5-3.6,0.5-5.3l-8.3-0.5
				c0,0.8-0.1,1.6,0,2.4h-0.5c-0.2-0.8-0.3-1.6-0.4-2.4l-1.8-0.1v-0.6l1.7-0.1c-0.2-2.2-0.3-4.2-0.2-6l-4.8-0.2
				c0.2,0.4,0.5,0.9,0.6,1.3c1,2.9,0.8,6.3,0.5,7.9h-0.6c-0.1-1.8-0.7-4.1-1.3-5.4c-1.3-3.2-4.3-5.9-9.4-9.2v4H35
				c-1.7-5.3-5.8-8.2-12-11.4c-5.1-2.6-6.7-5.8-6.4-10.7l1.7,1c0.4,4.6,4,7.2,7.6,7.2c2.2,0,4.2-0.3,6.2-0.7
				c2.8-0.6,5.5-1.1,7.6-0.3v-2.7H38c-0.6,0.5-1.9,1.1-3.7,1.2c-2,0-5.8-1.1-5.8-5.4c0-3.7,3.1-4.3,5.7-4.3c1.4,0,3.6,0,4.4-0.1
				c0.6,0,1-0.1,1.3-0.4c0.3-0.3,0.4-0.6,0.4-1c0.1-0.5,0.1-0.9,0.1-1.7V11H28.6v4.7L24.1,14v-1.1h2.1V11h-8V7.1h-2.7
				c-1.5,0-3.1,1-3.2,3c-0.1,1.9,0.7,3.5,2.7,3.5h0.4v2.3H15c-3.4,0-6-2.6-6-6c0-3.5,3-6.2,6.7-6.2h5.8v3.9h22.4v5.7
				c0,1,0,2.3-0.1,3.1c-0.1,0.6-0.3,1.7-1.4,2.5c-0.7,0.5-1.7,0.7-3.4,0.7c-0.5,0-2.1,0-4-0.1c-2.6-0.2-3.3,0.8-3.4,1.7
				c0,0.2,0,0.4,0,0.6c1.2-0.9,2.9-1.6,4.8-1c3.4,1.1,4.3,1.2,6.1-0.2l0.2,0.4c-0.2,0.3-0.5,0.7-1,1.1h1.6v8.9l5.1-3h14.3
				c0,0,6,3.2,7,3.7c0.9,0.5,1.2,1,1.4,1.8c0.1,0.7-0.1,1.5-0.4,2.1c-0.2,0.3-1.8,3-2.7,4.5c2.4,2.6,4.1,6.3,4.1,10.4
				c0,3.7-1.4,8.5-5.8,12.1c2,0.6,3.2,1.7,4.2,3.1L68.9,70.2L68.9,70.2z"/>
			<path id="Fill-6" class="st3" d="M38.5,89.2h-2.7v-7.7h2.6c3.5,0,4.9,1.1,4.9,3.7C43.3,88.1,41.5,89.2,38.5,89.2z M38.3,73.9
				c2.1,0,3.6,0.5,3.6,2.8c0,2.4-1.9,3.1-4.2,3.1h-1.9v-5.9H38.3z M42.6,80.4c1.9-0.3,3.8-1.8,3.8-4.1c0-2-0.9-4.3-6.9-4.3H29.4v0.2
				c0.3,0.1,0.8,0.3,1.1,0.7c0.7,0.7,0.9,1.7,0.9,3V91h8.4c4.6,0,7.9-1.8,7.9-5.8C47.7,82,45.2,80.6,42.6,80.4L42.6,80.4z"/>
			<path id="Fill-7" class="st3" d="M14.1,73.9h2.9c2.5,0,3.7,0.7,3.7,3.3c0,2.3-1.7,3.7-4.4,3.7h-2.3V73.9z M21.9,91h5.5l-7-8.9
				c2.8-0.7,4.9-2.3,4.9-5.1c0-3.3-1.9-5-7-5H7.7v0.2c0.4,0.1,0.8,0.4,1.1,0.7c0.7,0.7,1,1.8,1,3.3V91h4.4v-8.4h1.6L21.9,91L21.9,91
				z"/>
			<path id="Fill-8" class="st3" d="M65.4,74.7c1.2,0.7,1.5,1.5,1.5,1.5c0.1,0.1,0.2,0,0.2,0l1-3.2c0,0-1.7-1.2-5.8-1.2
				c-6.2,0-10.8,3.1-10.8,9.9c0,7.7,5.5,9.6,10.3,9.6c4.5,0,6.3-1.4,6.3-1.4v-2.2c0,0-1.6,1.5-5,1.5c-2.8,0-7-1.3-7-7.6
				c-0.1-5.8,2.4-7.7,5.8-7.7C63.8,73.9,64.8,74.3,65.4,74.7"/>
		</g>
	</g>
</g>
</svg>
