<?xml version="1.0" encoding="utf-8"?>
<!-- Generator: Adobe Illustrator 21.1.0, SVG Export Plug-In . SVG Version: 6.00 Build 0)  -->
<svg version="1.1" id="Layer_1" xmlns="http://www.w3.org/2000/svg" xmlns:xlink="http://www.w3.org/1999/xlink" x="0px" y="0px"
	 viewBox="0 0 100 87.5" style="enable-background:new 0 0 100 87.5;" xml:space="preserve">
<g id="Stories">
	<g id="Group-3" transform="translate(-623.000000, -126.000000)">
		<g transform="translate(569.666667, 126.000000)">
			<g id="_x30_9-handshake-agreement" transform="translate(54.000000, 0.000000)">
				<rect id="Rectangle-path" x="33.7" y="21.9" width="31.2" height="3.1"/>
				<path id="Shape" d="M74.3,60.9c-0.4,0-0.8-0.2-1.1-0.5c-0.6-0.6-0.6-1.6,0-2.2l5.8-5.8v-3.1l5.1-5.1c0.6-0.6,1.6-0.6,2.2,0
					c0.6,0.6,0.6,1.6,0,2.2l-4.2,4.2v3.1l-6.7,6.7C75.1,60.8,74.7,60.9,74.3,60.9z"/>
				<path id="Shape_1_" d="M68.1,79.7c-2.1,0-4-1.8-4.2-2L46.7,60.5c-0.6-0.6-0.6-1.6,0-2.2c0.6-0.6,1.6-0.6,2.2,0l17.2,17.2
					c0.4,0.4,1.4,1.1,2,1.1c1.7,0,3.1-1.4,3.1-3.1c0-0.6-0.7-1.6-1.1-2L52.9,54.2c-0.6-0.6-0.6-1.6,0-2.2c0.6-0.6,1.6-0.6,2.2,0
					l17.2,17.2c0.2,0.2,2,2.1,2,4.2C74.3,76.9,71.5,79.7,68.1,79.7z"/>
				<path id="Shape_2_" d="M60.3,84.4c-2.1,0-4-1.8-4.2-2L40.4,66.7c-0.6-0.6-0.6-1.6,0-2.2c0.6-0.6,1.6-0.6,2.2,0l15.6,15.6
					c0.4,0.4,1.4,1.1,2,1.1c1.7,0,3.1-1.4,3.1-3.1c0-0.6-0.7-1.6-1.1-2c-0.6-0.6-0.6-1.6,0-2.2c0.6-0.6,1.6-0.6,2.2,0
					c0.2,0.2,2,2.1,2,4.2C66.5,81.6,63.7,84.4,60.3,84.4z"/>
				<path id="Shape_3_" d="M50.9,87.5c-2.1,0-4-1.8-4.2-2L18.1,56.9v-4.7l-5.8-5.8c-0.6-0.6-0.6-1.6,0-2.2c0.6-0.6,1.6-0.6,2.2,0
					l6.7,6.7v4.7l27.7,27.7c0.4,0.4,1.4,1.1,2,1.1c1.7,0,3.1-1.4,3.1-3.1c0-0.6-0.7-1.6-1.1-2c-0.6-0.6-0.6-1.6,0-2.2
					c0.6-0.6,1.6-0.6,2.2,0c0.2,0.2,2,2.1,2,4.2C57.1,84.7,54.3,87.5,50.9,87.5z"/>
				<path id="Shape_4_" d="M24.3,68.7c-3.4,0-6.2-2.8-6.2-6.2c0-2.1,1.8-4,2-4.2c0.6-0.6,1.6-0.6,2.2,0c0.6,0.6,0.6,1.6,0,2.2
					c-0.4,0.4-1.1,1.4-1.1,2c0,1.7,1.4,3.1,3.1,3.1c0.6,0,1.6-0.7,2-1.1c0.6-0.6,1.6-0.6,2.2,0c0.6,0.6,0.6,1.6,0,2.2
					C28.4,66.9,26.5,68.7,24.3,68.7z"/>
				<path id="Shape_5_" d="M30.6,75c-3.4,0-6.2-2.8-6.2-6.2c0-2.1,1.8-4,2-4.2c0.6-0.6,1.6-0.6,2.2,0c0.6,0.6,0.6,1.6,0,2.2
					c-0.4,0.4-1.1,1.4-1.1,2c0,1.7,1.4,3.1,3.1,3.1c0.6,0,1.6-0.7,2-1.1c0.6-0.6,1.6-0.6,2.2,0c0.6,0.6,0.6,1.6,0,2.2
					C34.6,73.2,32.7,75,30.6,75z"/>
				<path id="Shape_6_" d="M36.8,81.2c-3.4,0-6.2-2.8-6.2-6.2c0-2.1,1.8-4,2-4.2c0.6-0.6,1.6-0.6,2.2,0c0.6,0.6,0.6,1.6,0,2.2
					c-0.4,0.4-1.1,1.4-1.1,2c0,1.7,1.4,3.1,3.1,3.1c0.6,0,1.6-0.7,2-1.1c0.6-0.6,1.6-0.6,2.2,0c0.6,0.6,0.6,1.6,0,2.2
					C40.9,79.4,39,81.2,36.8,81.2z"/>
				<path id="Shape_7_" d="M43.1,87.5c-3.4,0-6.2-2.8-6.2-6.2c0-2.1,1.8-4,2-4.2c0.6-0.6,1.6-0.6,2.2,0c0.6,0.6,0.6,1.6,0,2.2
					c-0.4,0.4-1.1,1.4-1.1,2c0,1.7,1.4,3.1,3.1,3.1c0.6,0,1.6-0.7,2-1.1c0.6-0.6,1.6-0.6,2.2,0c0.6,0.6,0.6,1.6,0,2.2
					C47.1,85.7,45.2,87.5,43.1,87.5z"/>
				<path id="Shape_8_" d="M71.2,70.3c-2.1,0-4-1.8-4.2-2c-0.6-0.6-0.6-1.6,0-2.2c0.6-0.6,1.6-0.6,2.2,0c0.4,0.4,1.4,1.1,2,1.1
					c1.7,0,3.1-1.4,3.1-3.1c0-0.6-0.7-1.6-1.1-2L52.5,41.3v-8.5H50l-7.4,7.4c-0.2,0.2-2.1,2-4.2,2c-3.4,0-6.2-2.8-6.2-6.2
					c0-2.1,1.8-4,2-4.2l9.4-9.4c0.6-0.6,1.6-0.6,2.2,0c0.6,0.6,0.6,1.6,0,2.2l-9.4,9.4c-0.4,0.4-1.1,1.4-1.1,2
					c0,1.7,1.4,3.1,3.1,3.1c0.6,0,1.6-0.7,2-1.1l8.3-8.3h6.9V40l19.9,19.9c0.2,0.2,2,2.1,2,4.2C77.5,67.5,74.7,70.3,71.2,70.3z"/>
				<path id="Shape_9_" d="M61.8,45.3h-4.7v-3.1h4.7c1.7,0,3.1-1.4,3.1-3.1h3.1C68.1,42.5,65.3,45.3,61.8,45.3z"/>
				<path id="Shape_10_" d="M90,46.9h-3.1c-0.4,0-0.8-0.2-1.1-0.5l-25-25c-0.3-0.3-0.5-0.7-0.5-1.1v-3.1c0-0.4,0.2-0.8,0.5-1.1
					L76.4,0.5c0.6-0.6,1.6-0.6,2.2,0c0.6,0.6,0.6,1.6,0,2.2L63.4,17.8v1.8l24.1,24.1h1.8l7.4-7.4c0.6-0.6,1.6-0.6,2.2,0
					c0.6,0.6,0.6,1.6,0,2.2l-7.8,7.8C90.8,46.7,90.4,46.9,90,46.9z"/>
				<path id="Shape_11_" d="M11.8,46.9H8.7c-0.4,0-0.8-0.2-1.1-0.5l-7.8-7.8c-0.6-0.6-0.6-1.6,0-2.2c0.6-0.6,1.6-0.6,2.2,0l7.4,7.4
					h1.8l24.1-24.1v-1.8L20.1,2.7c-0.6-0.6-0.6-1.6,0-2.2s1.6-0.6,2.2,0l15.6,15.6c0.3,0.3,0.5,0.7,0.5,1.1v3.1
					c0,0.4-0.2,0.8-0.5,1.1l-25,25C12.6,46.7,12.2,46.9,11.8,46.9z"/>
				<path id="Shape_12_" d="M88.4,35.9c-0.4,0-0.8-0.2-1.1-0.5c-0.6-0.6-0.6-1.6,0-2.2l3.1-3.1c0.6-0.6,1.6-0.6,2.2,0
					c0.6,0.6,0.6,1.6,0,2.2l-3.1,3.1C89.2,35.8,88.8,35.9,88.4,35.9z"/>
				<path id="Shape_13_" d="M10.3,35.9c-0.4,0-0.8-0.2-1.1-0.5L6,32.4c-0.6-0.6-0.6-1.6,0-2.2c0.6-0.6,1.6-0.6,2.2,0l3.1,3.1
					c0.6,0.6,0.6,1.6,0,2.2C11.1,35.8,10.7,35.9,10.3,35.9z"/>
			</g>
		</g>
	</g>
</g>
</svg>
