<?xml version="1.0" encoding="utf-8"?>
<!-- Generator: Adobe Illustrator 21.1.0, SVG Export Plug-In . SVG Version: 6.00 Build 0)  -->
<svg version="1.1" id="Layer_1" xmlns="http://www.w3.org/2000/svg" xmlns:xlink="http://www.w3.org/1999/xlink" x="0px" y="0px"
	 viewBox="0 0 78.1 100" style="enable-background:new 0 0 78.1 100;" xml:space="preserve">
<g id="Reports">
	<g id="Group-5" transform="translate(-933.000000, -123.000000)">
		<g transform="translate(644.000000, 123.000000)">
			<g id="Group-4" transform="translate(221.000000, 0.000000)">
				<g id="Group" transform="translate(68.000000, 0.000000)">
					<polygon id="Shape" points="78.1,100 6.2,100 6.2,92.2 9.4,92.2 9.4,96.9 75,96.9 75,9.4 64.1,9.4 64.1,6.2 78.1,6.2 					"/>
					<rect id="Rectangle-path" x="9.4" y="25" width="53.1" height="3.1"/>
					<rect id="Rectangle-path_1_" x="9.4" y="31.2" width="53.1" height="3.1"/>
					<rect id="Rectangle-path_2_" x="9.4" y="37.5" width="53.1" height="3.1"/>
					<rect id="Rectangle-path_3_" x="9.4" y="43.8" width="21.9" height="3.1"/>
					<rect id="Rectangle-path_4_" x="9.4" y="60.9" width="3.1" height="23.4"/>
					<rect id="Rectangle-path_5_" x="15.6" y="68.8" width="3.1" height="15.6"/>
					<rect id="Rectangle-path_6_" x="21.9" y="54.7" width="3.1" height="29.7"/>
					<rect id="Rectangle-path_7_" x="28.1" y="64.1" width="3.1" height="20.3"/>
					<rect id="Rectangle-path_8_" x="34.4" y="57.8" width="3.1" height="26.6"/>
					<rect id="Rectangle-path_9_" x="40.6" y="67.2" width="3.1" height="17.2"/>
					<rect id="Rectangle-path_10_" x="46.9" y="64.1" width="3.1" height="20.3"/>
					<rect id="Rectangle-path_11_" x="53.1" y="53.1" width="3.1" height="31.2"/>
					<rect id="Rectangle-path_12_" x="59.4" y="57.8" width="3.1" height="26.6"/>
					<polygon id="Shape_1_" points="68.8,15.6 56.2,15.6 56.2,3.1 59.4,3.1 59.4,12.5 68.8,12.5 					"/>
					<path id="Shape_2_" d="M71.9,93.8H0V0h58.5l13.4,13.4V93.8z M3.1,90.6h65.6V14.7L57.2,3.1h-54V90.6z"/>
					<path id="Shape_3_" d="M48.4,21.9H10.9c-0.9,0-1.6-0.7-1.6-1.6v-9.4c0-0.9,0.7-1.6,1.6-1.6h37.5c0.9,0,1.6,0.7,1.6,1.6v9.4
						C50,21.2,49.3,21.9,48.4,21.9z M12.5,18.8h34.4v-6.2H12.5V18.8z"/>
				</g>
			</g>
		</g>
	</g>
</g>
</svg>
