<?xml version="1.0" encoding="utf-8"?>
<!-- Generator: Adobe Illustrator 21.1.0, SVG Export Plug-In . SVG Version: 6.00 Build 0)  -->
<svg version="1.1" id="Layer_1" xmlns="http://www.w3.org/2000/svg" xmlns:xlink="http://www.w3.org/1999/xlink" x="0px" y="0px"
	 viewBox="0 0 100 100" style="enable-background:new 0 0 100 100;" xml:space="preserve">
<g id="Symbols">
	<g id="Footer-_x2F_-Default" transform="translate(-1224.000000, -281.000000)">
		<g id="Group" transform="translate(897.000000, 265.000000)">
			<g id="Group-3-Copy-2" transform="translate(307.000000, 0.000000)">
				<path id="Combined-Shape" d="M34,116c-7.7,0-14-6.3-14-14s6.3-14,14-14s14,6.3,14,14S41.7,116,34,116z M20,16L20,16
					c55.2,0,100,44.8,100,100h-18.2c0-45.2-36.6-81.8-81.8-81.8V16z M20,52.4L20,52.4c35.2,0,63.6,28.5,63.6,63.6H65.4
					c0-25.1-20.4-45.4-45.4-45.4V52.4z"/>
			</g>
		</g>
	</g>
</g>
</svg>
