<?xml version="1.0" encoding="utf-8"?>
<!-- Generator: Adobe Illustrator 21.0.2, SVG Export Plug-In . SVG Version: 6.00 Build 0)  -->
<svg version="1.1" id="Layer_1" xmlns="http://www.w3.org/2000/svg" xmlns:xlink="http://www.w3.org/1999/xlink" x="0px" y="0px"
	 viewBox="0 0 100 48.4" style="enable-background:new 0 0 100 48.4;" xml:space="preserve">
<style type="text/css">
	.st0{fill:#4A4A4A;}
	.st1{fill:#9B9B9B;}
	.st2{fill:#FFFFFE;}
</style>
<g id="Home">
	<g id="Ryerson-cmyk" transform="translate(-752.000000, -2599.000000)">
		<g transform="translate(752.000000, 2599.000000)">
			<polygon id="Fill-1" class="st0" points="0,48.4 94.7,48.4 94.7,8.1 0,8.1 			"/>
			<polygon id="Fill-3" class="st1" points="86.7,40.4 100,40.4 100,0 86.7,0 			"/>
			<path id="Fill-4" class="st2" d="M13.5,19.4h-3.2l-0.1-0.1v-2.8l0.1-0.1h3.2c1.2,0,1.7,0.5,1.7,1.5C15.2,19,14.7,19.4,13.5,19.4z
				 M14.9,21.1c1.2-0.3,2.4-1.3,2.4-3.2c0-2.1-1.4-3.3-3.8-3.3H8.2L8,14.7v11l0.1,0.1h1.9l0.1-0.1v-4.2l0.1-0.2l1.8,0l0.3,0.2
				l3.2,4.2l0.3,0.2h0.9l0.1-0.1v-1.6l-2.1-2.8V21.1L14.9,21.1z"/>
			<path id="Fill-5" class="st2" d="M19.7,29c2.3,0,2.9-1.5,3.5-3l2.6-6.5v-1.6l-0.1-0.1h-1.4L24.1,18l-2,5.6H22L20,18l-0.1-0.1
				h-1.4l-0.1,0.1v1.6l2.6,6.3l0,0.2c-0.2,0.6-0.3,1.1-1.2,1.1h-1l-0.1,0.1v1.6l0.1,0.1H19.7"/>
			<path id="Fill-6" class="st2" d="M28.9,20.9c0-0.4,0.3-1.4,1.5-1.4s1.5,1.1,1.5,1.4l-0.1,0.1H29L28.9,20.9z M34.1,22.6l0.1-0.1
				v-0.6c0-3.1-2.1-4.2-3.8-4.2c-1.8,0-3.8,1.1-3.8,4.2c0,1.9,1,4.2,4,4.2c2.7,0,3.2-1.8,3.3-2.4l-0.1-0.1h-1.9l-0.1,0.1
				c-0.2,0.3-0.6,0.5-1.2,0.5c-1.4,0-1.7-1-1.7-1.4l0.1-0.1H34.1L34.1,22.6z"/>
			<path id="Fill-7" class="st2" d="M37.8,18.5L37.6,18l-0.1-0.1h-1.7l-0.1,0.1v7.7l0.1,0.1h1.9l0.1-0.1v-3.9c0-1.5,0.5-2.2,1.8-2.2
				h1.1l0.1-0.1v-1.6l-0.1-0.1h-1c-1.5,0-1.8,0.7-1.8,0.7H37.8"/>
			<path id="Fill-8" class="st2" d="M45.8,21.1c-0.2,0-0.3-0.1-0.5-0.1c-0.8-0.1-1.5-0.2-1.5-0.8c0-0.6,0.5-0.7,1.2-0.7
				c0.8,0,1.2,0.2,1.2,0.5l0.1,0.1h1.9l0.1-0.1c0-1.5-1.3-2.4-3.3-2.4c-2.1,0-3.3,0.9-3.3,2.4c0,1.4,1,2.2,3,2.5
				c0.1,0,0.2,0,0.4,0.1c0.8,0.1,1.3,0.2,1.3,0.8c0,0.6-0.8,0.7-1.3,0.7c-0.7,0-1.3-0.1-1.3-0.8l-0.1-0.1h-1.9l-0.1,0.1
				c0,1.7,1.4,2.7,3.5,2.7c1.7,0,3.5-0.7,3.5-2.5C48.5,21.5,46.6,21.2,45.8,21.1"/>
			<path id="Fill-9" class="st2" d="M53.4,24.1c-1.2,0-1.8-0.8-1.8-2.3c0-1.5,0.7-2.3,1.8-2.3c1.2,0,1.8,0.8,1.8,2.3
				C55.2,23.3,54.5,24.1,53.4,24.1z M53.4,17.7c-2.4,0-4,1.6-4,4.2s1.6,4.2,4,4.2c2.4,0,4-1.6,4-4.2S55.8,17.7,53.4,17.7L53.4,17.7z
				"/>
			<path id="Fill-10" class="st2" d="M64.1,25.8H66l0.1-0.1v-4.8c0-2-1.2-3.2-3-3.2c-0.8,0-1.6,0.3-2.1,0.9h-0.1L60.6,18l-0.1-0.1
				h-1.7l-0.1,0.1v7.7l0.1,0.1h1.9l0.1-0.1v-4c0-1.4,0.6-2.2,1.8-2.2c0.9,0,1.3,0.5,1.3,1.5v4.7L64.1,25.8"/>
			<path id="Fill-11" class="st2" d="M17,29.3l-0.1-0.1H15l-0.1,0.1V36c0,1.8-0.8,2.6-2.3,2.6s-2.3-0.9-2.3-2.6v-6.8l-0.1-0.1H8.2
				L8,29.3V36c0,2.9,1.6,4.5,4.5,4.5c2.9,0,4.5-1.6,4.5-4.5V29.3"/>
			<polyline id="Fill-12" class="st2" points="27.9,29.1 27.7,29.3 27.7,30.8 27.9,31 29.8,31 29.9,30.8 29.9,29.3 29.8,29.1 
				27.9,29.1 			"/>
			<polyline id="Fill-13" class="st2" points="29.8,40.4 29.9,40.2 29.9,32.5 29.8,32.4 27.9,32.4 27.7,32.5 27.7,40.2 27.9,40.4 
				29.8,40.4 			"/>
			<polyline id="Fill-14" class="st2" points="37.2,32.4 37,32.5 35,37.6 34.9,37.6 32.9,32.5 32.8,32.4 31.3,32.4 31.2,32.5 
				31.2,34.1 34,40.2 34.1,40.4 35.8,40.4 36,40.2 38.7,34.1 38.7,32.5 38.6,32.4 37.2,32.4 			"/>
			<path id="Fill-15" class="st2" d="M58.6,35.6c-0.2,0-0.3-0.1-0.5-0.1c-0.8-0.1-1.5-0.2-1.5-0.8c0-0.6,0.5-0.7,1.2-0.7
				c0.8,0,1.2,0.2,1.2,0.5l0.1,0.1H61l0.1-0.1c0-1.5-1.3-2.4-3.3-2.4c-2.1,0-3.3,0.9-3.3,2.4c0,1.4,1,2.2,3,2.5c0.1,0,0.2,0,0.4,0.1
				c0.8,0.1,1.3,0.2,1.3,0.8c0,0.6-0.8,0.7-1.3,0.7c-0.7,0-1.3-0.1-1.3-0.8l-0.1-0.1h-1.9l-0.1,0.1c0,1.7,1.4,2.7,3.5,2.7
				c1.7,0,3.5-0.7,3.5-2.5C61.3,36,59.5,35.7,58.6,35.6"/>
			<polyline id="Fill-16" class="st2" points="64.7,40.4 64.8,40.2 64.8,32.5 64.7,32.4 62.8,32.4 62.6,32.5 62.6,40.2 62.8,40.4 
				64.7,40.4 			"/>
			<polyline id="Fill-17" class="st2" points="62.8,29.1 62.6,29.3 62.6,30.8 62.8,31 64.7,31 64.8,30.8 64.8,29.3 64.7,29.1 
				62.8,29.1 			"/>
			<path id="Fill-18" class="st2" d="M70.1,40.4h1.4l0.1-0.1v-1.6l-0.1-0.1h-1.4c-0.4,0-0.5-0.2-0.5-0.5v-3.6l0.1-0.1h1.8l0.1-0.1
				v-1.6l-0.1-0.1h-1.8l-0.1-0.1v-1.5l-0.1-0.1h-1.9l-0.1,0.1v1.5l-0.1,0.1h-1.2l-0.1,0.1v1.6l0.1,0.1h1.2l0.1,0.1V38
				C67.4,40.1,69.3,40.4,70.1,40.4"/>
			<path id="Fill-19" class="st2" d="M24.1,40.4H26l0.1-0.1v-4.8c0-2-1.2-3.2-3-3.2c-0.8,0-1.6,0.3-2.1,0.9h-0.1l-0.2-0.6l-0.1-0.1
				h-1.7l-0.1,0.1v7.7l0.1,0.1h1.9l0.1-0.1v-4c0-1.4,0.6-2.2,1.8-2.2c0.9,0,1.3,0.5,1.3,1.5v4.7L24.1,40.4"/>
			<path id="Fill-20" class="st2" d="M41.8,35.5c0-0.4,0.3-1.4,1.5-1.4s1.5,1.1,1.5,1.4l-0.1,0.1h-2.8L41.8,35.5z M47,37.1l0.1-0.1
				v-0.6c0-3.1-2.1-4.2-3.8-4.2s-3.8,1.1-3.8,4.2c0,1.9,1,4.2,4,4.2c2.7,0,3.2-1.8,3.3-2.4L46.7,38h-1.9l-0.1,0.1
				c-0.2,0.3-0.6,0.5-1.2,0.5c-1.4,0-1.7-1-1.7-1.4l0.1-0.1H47L47,37.1z"/>
			<path id="Fill-21" class="st2" d="M50.6,33.1l-0.2-0.6l-0.1-0.1h-1.7l-0.1,0.1v7.7l0.1,0.1h1.9l0.1-0.1v-3.9
				c0-1.5,0.5-2.2,1.8-2.2h1.1l0.1-0.1v-1.6l-0.1-0.1h-1c-1.5,0-1.8,0.7-1.8,0.7H50.6"/>
			<path id="Fill-22" class="st2" d="M74.1,43.5c2.3,0,2.9-1.5,3.5-3l2.6-6.5v-1.6L80,32.4h-1.4l-0.1,0.1l-2,5.6h-0.2l-2-5.6
				l-0.1-0.1h-1.4l-0.1,0.1v1.6l2.6,6.3l0,0.2c-0.2,0.6-0.4,1.1-1.2,1.1h-0.8l-0.1,0.1v1.6l0.1,0.1H74.1"/>
		</g>
	</g>
</g>
</svg>
