<?xml version="1.0" encoding="utf-8"?>
<!-- Generator: Adobe Illustrator 21.0.2, SVG Export Plug-In . SVG Version: 6.00 Build 0)  -->
<svg version="1.1" id="Layer_1" xmlns="http://www.w3.org/2000/svg" xmlns:xlink="http://www.w3.org/1999/xlink" x="0px" y="0px"
	 viewBox="0 0 100 100" style="enable-background:new 0 0 100 100;" xml:space="preserve">
<g id="Home">
	<g id="Group-10" transform="translate(-792.000000, -1466.000000)">
		<g transform="translate(792.000000, 1466.000000)">
			<polygon id="Shape" points="50,98.4 46.9,98.4 46.9,3.1 43.8,3.1 43.8,98.4 40.6,98.4 40.6,0 50,0 			"/>
			<rect id="Rectangle-path" x="15.6" y="62.5" width="3.1" height="35.9"/>
			<rect id="Rectangle-path_1_" x="15.6" y="31.3" width="3.1" height="3.1"/>
			<rect id="Rectangle-path_2_" x="7.8" y="56.3" width="18.8" height="3.1"/>
			<rect id="Rectangle-path_3_" x="6.3" y="60.9" width="3.1" height="37.5"/>
			<path id="Shape_1_" d="M34.4,62.5H25v-25h3.1v21.9h3.1V32.8c0-2.6-2.1-4.7-4.7-4.7H7.8c-2.6,0-4.7,2.1-4.7,4.7v26.6h3.1V37.5h3.1
				v25H0V32.8C0,28.5,3.5,25,7.8,25h18.8c4.3,0,7.8,3.5,7.8,7.8C34.4,32.8,34.4,62.5,34.4,62.5z"/>
			<rect id="Rectangle-path_4_" x="25" y="60.9" width="3.1" height="37.5"/>
			<path id="Shape_2_" d="M17.2,21.9c-4.3,0-7.8-3.5-7.8-7.8s3.5-7.8,7.8-7.8S25,9.8,25,14.1S21.5,21.9,17.2,21.9z M17.2,9.4
				c-2.6,0-4.7,2.1-4.7,4.7s2.1,4.7,4.7,4.7s4.7-2.1,4.7-4.7S19.8,9.4,17.2,9.4z"/>
			<rect id="Rectangle-path_5_" y="96.9" width="100" height="3.1"/>
			<path id="Shape_3_" d="M98.4,50H60.9c-0.6,0-1.2-0.4-1.4-1s-0.1-1.3,0.3-1.7l5.1-5.1H48.4c-0.9,0-1.6-0.7-1.6-1.6V9.4
				c0-0.9,0.7-1.6,1.6-1.6h20.3c0.9,0,1.6,0.7,1.6,1.6v31.2c0,0.4-0.2,0.8-0.5,1.1l-5.1,5.1h30.9L86.2,32c-0.3-0.5-0.3-1.2,0-1.7
				l9.4-14.8H73.4v-3.1h25c0.6,0,1.1,0.3,1.4,0.8s0.3,1.1-0.1,1.6L89.4,31.3l10.4,16.3c0.3,0.5,0.3,1.1,0.1,1.6
				C99.5,49.7,99,50,98.4,50z M50,39.1h17.2V10.9H50V39.1z"/>
			<rect id="Rectangle-path_6_" x="59.4" y="40.6" width="3.1" height="7.8"/>
			<rect id="Rectangle-path_7_" x="79.7" y="29.7" width="3.1" height="3.1"/>
			<rect id="Rectangle-path_8_" x="73.4" y="29.7" width="3.1" height="3.1"/>
			<polygon id="Shape_4_" points="93.8,98.4 90.6,98.4 90.6,78.1 59.4,78.1 59.4,98.4 56.3,98.4 56.3,75 93.8,75 			"/>
			<polygon id="Shape_5_" points="84.4,76.6 81.3,76.6 81.3,71.9 68.8,71.9 68.8,76.6 65.6,76.6 65.6,68.8 84.4,68.8 			"/>
			<rect id="Rectangle-path_9_" x="57.8" y="84.4" width="34.4" height="3.1"/>
			<rect id="Rectangle-path_10_" x="73.4" y="85.9" width="3.1" height="4.7"/>
		</g>
	</g>
</g>
</svg>
