<?xml version="1.0" encoding="utf-8"?>
<!-- Generator: Adobe Illustrator 21.1.0, SVG Export Plug-In . SVG Version: 6.00 Build 0)  -->
<svg version="1.1" id="Layer_1" xmlns="http://www.w3.org/2000/svg" xmlns:xlink="http://www.w3.org/1999/xlink" x="0px" y="0px"
	 viewBox="0 0 100 100" style="enable-background:new 0 0 100 100;" xml:space="preserve">
<desc>Created with Sketch.</desc>
<g id="Read">
	<g id="_x34_3-inspirating-idea" transform="translate(-663.000000, -123.000000)">
		<g transform="translate(663.000000, 123.000000)">
			<rect id="Rectangle-path" x="20.3" y="32.8" width="3.1" height="3.1"/>
			<rect id="Rectangle-path_1_" x="12.5" y="28.1" width="3.1" height="3.1"/>
			<rect id="Rectangle-path_2_" x="4.7" y="23.4" width="3.1" height="3.1"/>
			<rect id="Rectangle-path_3_" x="32.8" y="20.3" width="3.1" height="3.1"/>
			<rect id="Rectangle-path_4_" x="28.1" y="12.5" width="3.1" height="3.1"/>
			<rect id="Rectangle-path_5_" x="23.4" y="4.7" width="3.1" height="3.1"/>
			<rect id="Rectangle-path_6_" x="48.4" y="7.8" width="3.1" height="3.1"/>
			<rect id="Rectangle-path_7_" x="48.4" y="15.6" width="3.1" height="3.1"/>
			<rect id="Rectangle-path_8_" x="48.4" width="3.1" height="3.1"/>
			<rect id="Rectangle-path_9_" x="76.6" y="32.8" width="3.1" height="3.1"/>
			<rect id="Rectangle-path_10_" x="84.4" y="28.1" width="3.1" height="3.1"/>
			<rect id="Rectangle-path_11_" x="92.2" y="23.4" width="3.1" height="3.1"/>
			<rect id="Rectangle-path_12_" x="64.1" y="20.3" width="3.1" height="3.1"/>
			<rect id="Rectangle-path_13_" x="68.8" y="12.5" width="3.1" height="3.1"/>
			<rect id="Rectangle-path_14_" x="73.4" y="4.7" width="3.1" height="3.1"/>
			<rect id="Rectangle-path_15_" x="7.8" y="48.4" width="3.1" height="3.1"/>
			<rect id="Rectangle-path_16_" x="15.6" y="48.4" width="3.1" height="3.1"/>
			<rect id="Rectangle-path_17_" y="48.4" width="3.1" height="3.1"/>
			<rect id="Rectangle-path_18_" x="20.3" y="64.1" width="3.1" height="3.1"/>
			<rect id="Rectangle-path_19_" x="12.5" y="68.8" width="3.1" height="3.1"/>
			<rect id="Rectangle-path_20_" x="4.7" y="73.4" width="3.1" height="3.1"/>
			<rect id="Rectangle-path_21_" x="32.8" y="76.6" width="3.1" height="3.1"/>
			<rect id="Rectangle-path_22_" x="28.1" y="84.4" width="3.1" height="3.1"/>
			<rect id="Rectangle-path_23_" x="23.4" y="92.2" width="3.1" height="3.1"/>
			<rect id="Rectangle-path_24_" x="48.4" y="89.1" width="3.1" height="3.1"/>
			<rect id="Rectangle-path_25_" x="48.4" y="81.2" width="3.1" height="3.1"/>
			<rect id="Rectangle-path_26_" x="48.4" y="96.9" width="3.1" height="3.1"/>
			<rect id="Rectangle-path_27_" x="89.1" y="48.4" width="3.1" height="3.1"/>
			<rect id="Rectangle-path_28_" x="81.2" y="48.4" width="3.1" height="3.1"/>
			<rect id="Rectangle-path_29_" x="96.9" y="48.4" width="3.1" height="3.1"/>
			<rect id="Rectangle-path_30_" x="76.6" y="64.1" width="3.1" height="3.1"/>
			<rect id="Rectangle-path_31_" x="84.4" y="68.8" width="3.1" height="3.1"/>
			<rect id="Rectangle-path_32_" x="92.2" y="73.4" width="3.1" height="3.1"/>
			<rect id="Rectangle-path_33_" x="64.1" y="76.6" width="3.1" height="3.1"/>
			<rect id="Rectangle-path_34_" x="68.8" y="84.4" width="3.1" height="3.1"/>
			<rect id="Rectangle-path_35_" x="73.4" y="92.2" width="3.1" height="3.1"/>
			<path id="Shape" d="M59.4,59.4h-3.1c0-3.1,1.7-5.4,3.4-7.6c2.2-2.7,4.4-5.5,4.4-11.2c0-6.9-6.3-12.5-14.1-12.5
				s-14.1,5.6-14.1,12.5c0,5.7,2.2,8.5,4.4,11.2c1.7,2.1,3.4,4.4,3.4,7.6h-3.1c0-1.6-1.2-3.7-2.8-5.6c-2.3-2.8-5.1-6.4-5.1-13.1
				C32.8,32,40.5,25,50,25s17.2,7,17.2,15.6c0,6.8-2.8,10.3-5.1,13.1C60.6,55.7,59.4,57.8,59.4,59.4z"/>
			<rect id="Rectangle-path_36_" x="43.8" y="64.1" width="3.1" height="6.2"/>
			<rect id="Rectangle-path_37_" x="53.1" y="64.1" width="3.1" height="6.2"/>
			<rect id="Rectangle-path_38_" x="40.6" y="62.5" width="18.8" height="3.1"/>
			<rect id="Rectangle-path_39_" x="40.6" y="68.8" width="18.8" height="3.1"/>
			<polygon id="Shape_1_" points="52.2,75 47.8,75 44.2,71.4 46.4,69.2 49.1,71.9 50.9,71.9 53.6,69.2 55.8,71.4 			"/>
			<rect id="Rectangle-path_40_" x="48.4" y="42.2" width="3.1" height="20.3"/>
			<circle id="Oval" cx="50" cy="42.2" r="3.1"/>
			<path id="Shape_2_" d="M50,51.6c-5.2,0-9.4-4.2-9.4-9.4s4.2-9.4,9.4-9.4s9.4,4.2,9.4,9.4S55.2,51.6,50,51.6z M50,35.9
				c-3.4,0-6.2,2.8-6.2,6.2s2.8,6.2,6.2,6.2s6.2-2.8,6.2-6.2S53.4,35.9,50,35.9z"/>
		</g>
	</g>
</g>
</svg>
