<?xml version="1.0" encoding="utf-8"?>
<!-- Generator: Adobe Illustrator 21.1.0, SVG Export Plug-In . SVG Version: 6.00 Build 0)  -->
<svg version="1.1" id="Layer_1" xmlns="http://www.w3.org/2000/svg" xmlns:xlink="http://www.w3.org/1999/xlink" x="0px" y="0px"
	 viewBox="0 0 100 83.3" style="enable-background:new 0 0 100 83.3;" xml:space="preserve">
<g id="Symbols">
	<g id="Footer-_x2F_-Default" transform="translate(-917.000000, -283.000000)">
		<g id="Group" transform="translate(897.000000, 265.000000)">
			<g id="Group-3">
				<path id="Path" d="M111.4,38.7c-0.8,35.9-23.4,60.9-57.8,62.5C39.5,102,29.4,97.3,20,91.8c10.2,1.6,23.4-2.3,30.5-8.6
					C40.3,82.4,34.1,77,30.9,68.4c3.1,0.8,6.2,0,8.6,0c-9.4-3.1-15.6-8.6-16.4-21.1c2.3,1.6,5.5,2.3,8.6,2.3
					c-7-3.9-11.7-18.7-6.2-28.1c10.2,10.9,22.7,20.3,43,21.9C63,21.5,92.7,9.8,104.4,24.6c5.5-0.8,9.4-3.1,13.3-4.7
					c-1.6,5.5-4.7,8.6-8.6,11.7c3.9-0.8,7.8-1.6,10.9-3.1C119.2,32.4,115.3,35.6,111.4,38.7z"/>
			</g>
		</g>
	</g>
</g>
</svg>
