<?xml version="1.0" encoding="utf-8"?>
<!-- Generator: Adobe Illustrator 21.0.2, SVG Export Plug-In . SVG Version: 6.00 Build 0)  -->
<svg version="1.1" id="Layer_1" xmlns="http://www.w3.org/2000/svg" xmlns:xlink="http://www.w3.org/1999/xlink" x="0px" y="0px"
	 viewBox="0 0 100 100" style="enable-background:new 0 0 100 100;" xml:space="preserve">
<g id="Home">
	<g id="Group-6" transform="translate(-494.000000, -1234.000000)">
		<g transform="translate(494.000000, 1234.000000)">
			<path id="Shape" d="M3.6,100H0V6.3C0,2.8,2.8,0,6.3,0h87.5c3.4,0,6.3,2.8,6.3,6.3v65.6c0,3.4-2.8,6.3-6.3,6.3H34.9L3.6,100z
				 M6.3,3.1c-1.7,0-3.1,1.4-3.1,3.1v90.3L33.9,75h59.9c1.7,0,3.1-1.4,3.1-3.1V6.3c0-1.7-1.4-3.1-3.1-3.1H6.3V3.1z"/>
			<path id="Shape_1_" d="M93.8,59.4H6.3V6.3h87.5V59.4z M9.4,56.3h81.3V9.4H9.4V56.3z"/>
			<path id="Shape_2_" d="M41,45.3h-3.5v-25H41l23.2,12.5L41,45.3z M40.6,23.6V42l17-9.2L40.6,23.6z"/>
			<rect id="Rectangle-path" x="6.3" y="64.1" width="18.8" height="3.1"/>
			<rect id="Rectangle-path_1_" x="34.4" y="64.1" width="40.6" height="3.1"/>
			<rect id="Rectangle-path_2_" x="78.1" y="64.1" width="3.1" height="3.1"/>
			<rect id="Rectangle-path_3_" x="84.4" y="64.1" width="3.1" height="3.1"/>
			<rect id="Rectangle-path_4_" x="90.6" y="64.1" width="3.1" height="3.1"/>
			<rect id="Rectangle-path_5_" x="28.1" y="62.5" width="3.1" height="6.3"/>
		</g>
	</g>
</g>
</svg>
