<?xml version="1.0" encoding="utf-8"?>
<!-- Generator: Adobe Illustrator 21.1.0, SVG Export Plug-In . SVG Version: 6.00 Build 0)  -->
<svg version="1.1" id="Layer_1" xmlns="http://www.w3.org/2000/svg" xmlns:xlink="http://www.w3.org/1999/xlink" x="0px" y="0px"
	 viewBox="0 0 90.6 100" style="enable-background:new 0 0 90.6 100;" xml:space="preserve">
<g id="Stories">
	<g id="Group-4" transform="translate(-396.000000, -123.000000)">
		<g transform="translate(370.000000, 123.000000)">
			<g id="_x33_0-problem-solving" transform="translate(26.000000, 0.000000)">
				<rect id="Rectangle-path" x="29.7" y="29.7" width="3.1" height="3.1"/>
				<rect id="Rectangle-path_1_" x="23.4" y="29.7" width="3.1" height="3.1"/>
				<rect id="Rectangle-path_2_" x="35.9" y="29.7" width="3.1" height="3.1"/>
				<path id="Shape" d="M62.5,100h-3.1V81.2c0-0.9,0.7-1.6,1.6-1.6h9.4c4.3,0,7.8-3.5,7.8-7.8V57.8c0-0.9,0.7-1.6,1.6-1.6h7.8V55
					l-9.2-20c-0.1-0.2-0.1-0.4-0.1-0.7c0-17.2-14-31.2-31.2-31.2V0c18.8,0,34.2,15.2,34.4,34l9.2,20c0.1,0.2,0.1,0.4,0.1,0.7v3.1
					c0,0.9-0.7,1.6-1.6,1.6h-7.8v12.5c0,6-4.9,10.9-10.9,10.9h-7.8V100z"/>
				<path id="Shape_1_" d="M28.1,84.4H25v-4.7c0-7.1-3.5-13.1-7.2-19.4c-4.2-7.1-8.5-14.5-8.5-24.3h3.1c0,9,4.1,16,8,22.8
					c3.7,6.4,7.6,13,7.6,21V84.4z"/>
				<path id="Shape_2_" d="M37.5,84.4h-3.1v-6.2c0-11.9,6.2-17.1,12.2-22.2c6.6-5.5,12.8-10.7,12.8-24.7c0-15.5-12.6-28.1-28.1-28.1
					C16.3,3.1,4,14.9,3.2,29.7h6.3C10.2,18.4,19.7,9.4,31.2,9.4c12.1,0,21.9,9.8,21.9,21.9c0,10.7-6.5,16.1-12.7,21.4
					c-3.6,3-7.3,6.2-9.7,10.3L28,61.4c2.6-4.6,6.6-7.9,10.4-11.2c6-5,11.6-9.8,11.6-19c0-10.3-8.4-18.8-18.8-18.8
					s-18.8,8.4-18.8,18.8c0,0.9-0.7,1.6-1.6,1.6H1.6c-0.9,0-1.6-0.7-1.6-1.6C0,14,14,0,31.2,0s31.2,14,31.2,31.2
					c0,15.4-7.4,21.6-13.9,27.1c-6,5-11.1,9.3-11.1,19.8V84.4z"/>
				<path id="Shape_3_" d="M35.9,100h-9.4c-0.9,0-1.6-0.7-1.6-1.6v-9.4c0-0.9,0.7-1.6,1.6-1.6h9.4c0.9,0,1.6,0.7,1.6,1.6v9.4
					C37.5,99.3,36.8,100,35.9,100z M28.1,96.9h6.2v-6.2h-6.2V96.9z"/>
				<rect id="Rectangle-path_3_" x="56.2" y="79.7" width="4.7" height="3.1"/>
			</g>
		</g>
	</g>
</g>
</svg>
