<?xml version="1.0" encoding="utf-8"?>
<!-- Generator: Adobe Illustrator 21.1.0, SVG Export Plug-In . SVG Version: 6.00 Build 0)  -->
<svg version="1.1" id="Layer_1" xmlns="http://www.w3.org/2000/svg" xmlns:xlink="http://www.w3.org/1999/xlink" x="0px" y="0px"
	 viewBox="0 0 100 100" style="enable-background:new 0 0 100 100;" xml:space="preserve">
<g>
	<path d="M50,62.6L15.3,97.3c-3.5,3.5-9.2,3.5-12.7,0.1c-3.5-3.5-3.5-9.2,0.1-12.7L37.4,50L2.7,15.3c-3.5-3.5-3.5-9.2-0.1-12.7
		c3.5-3.5,9.2-3.5,12.7,0.1L50,37.4L84.7,2.7c3.5-3.5,9.2-3.5,12.7-0.1c3.5,3.5,3.5,9.2-0.1,12.7L62.6,50l34.7,34.7
		c3.5,3.5,3.5,9.2,0.1,12.7c-3.5,3.5-9.2,3.5-12.7-0.1L50,62.6z"/>
</g>
</svg>
